<svg width="68" height="83" viewBox="0 0 68 83" fill="none" xmlns="http://www.w3.org/2000/svg">
<ellipse cx="2.95341" cy="2.0646" rx="2.95341" ry="2.0646" transform="matrix(0.7858 0.618481 -0.625769 0.780009 30.2506 61.9842)" fill="white"/>
<path d="M34.6482 6.1348L35.5749 5.842L36.2428 5.72724L36.8146 5.69105L37.3563 5.71251L37.9702 5.80743L38.4007 5.93628L38.6776 6.04139L39.2596 6.33903L39.644 6.62688L39.9914 6.95052L40.2655 7.27322L40.5456 7.69031L40.7887 8.1432L41.1444 8.94574L41.4049 9.75431L41.5066 10.3722L41.5089 10.7567L41.5441 10.866L42.0187 10.9809L42.398 11.1018L42.4853 11.1465L42.5514 11.1256L42.6496 10.9019L42.7839 10.7151L42.9693 10.5361L43.2721 10.3441L43.6622 10.1968L44.0443 10.1001L44.5358 10.0411L44.9531 10.0537L45.2962 10.1379L45.5802 10.2649L45.798 10.4128L46.0148 10.6332L46.1514 10.8308L46.2227 10.9768L46.5936 10.6188L46.8593 10.4626L47.3667 10.3023L47.807 10.2354L48.2394 10.2192L48.7149 10.2616L49.2406 10.3844L49.5978 10.5123L49.94 10.669L50.2812 10.8983L50.5412 11.1773L50.6989 11.4404L50.8045 11.7682L50.8288 12.1458L50.7809 12.4498L50.6978 12.6446L50.8382 12.5521L51.1039 12.3959L51.7878 12.1798L52.1469 12.1627L52.4469 12.1883L52.7097 12.2497L53.0158 12.3697L53.2988 12.5692L53.5227 12.8114L53.6804 13.0746L53.8352 13.5554L53.8586 14.0055L53.7947 14.4109L53.8008 14.5053L53.9041 14.4486L54.3674 14.3022L54.7195 14.2631L55.0415 14.2818L55.3264 14.3362L55.6034 14.4413L55.8071 14.5455L56.1042 14.7887L56.2989 15.0161L56.5139 15.3816L56.6265 15.7312L56.68 16.1236L56.6672 16.537L56.5822 16.8768L56.4611 17.18L56.2888 17.4752L56.1324 17.669L55.977 17.7904L55.8888 17.8183L56.0836 18.0456L56.0976 18.0893L56.3192 17.9471L56.4446 17.8834L56.7314 17.7928L57.0102 17.7528L57.3102 17.7784L57.6242 17.8478L57.9011 17.9529L58.1921 18.1017L58.5113 18.3379L58.8004 18.6318L59.0304 18.9685L59.2514 19.4283L59.3711 19.7998L59.4325 20.1416L59.4348 20.5261L59.3949 20.7795L59.3038 21.0249L59.2808 21.1044L59.66 21.2254L59.9149 21.3375L60.1909 21.5151L60.5101 21.7513L60.9006 22.1336L61.2319 22.5586L61.3966 22.8436L61.482 23.0333L61.5876 23.3611L61.642 23.681L61.6302 24.0218L61.5753 24.304L61.4171 24.6429L61.2678 24.8586L61.0232 25.0804L60.6612 25.3151L60.6753 25.3588L60.7776 25.3747L61.2653 25.6058L61.5343 25.7616L61.8023 25.9899L61.99 26.1954L62.3063 26.6493L62.5424 27.0803L62.6419 27.3137L62.7334 27.5978L62.7878 27.9177L62.7901 28.3022L62.7262 28.7076L62.605 29.0107L62.4477 29.2771L62.3064 29.4422L62.0327 29.649L61.8262 29.7625L61.8505 30.14L61.8106 30.3934L61.6824 30.6747L61.5261 30.8685L61.2594 31.0972L60.9937 31.2534L60.8614 31.2953L61.1495 31.6617L61.3072 31.9248L61.456 32.3112L61.5385 32.7185L61.5469 33.1974L61.492 33.4796L61.4079 33.747L61.2797 34.0282L61.1816 34.2519L61.0022 34.5252L60.8158 34.7767L60.5633 35.0492L60.2746 35.2849L60.0309 35.4341L59.5014 35.6014L59.1864 35.6046L59.0179 35.6097L58.8677 35.8979L58.8888 35.9635L59.0343 36.0379L59.23 36.1928L59.4309 36.5145L59.5153 36.7768L59.5697 37.0967L59.5791 37.503L59.5213 38.0028L59.4593 38.2632L59.3602 38.5593L59.232 38.8406L59.0597 39.1358L58.8883 39.3585L58.6358 39.6309L58.2809 39.8875L58.0964 39.994L57.6551 40.1334L57.296 40.1506L56.9088 40.0803L56.5445 39.9306L56.2685 39.7529L55.9714 39.5097L55.9212 39.4293L55.7287 39.5864L55.5212 39.7724L55.4621 39.8151L55.5344 39.8886L55.6869 39.9849L55.7662 40.0802L55.8305 40.2043L55.9079 40.4447L55.9403 40.7716L55.9294 41.0398L55.8515 41.4016L55.7374 41.7265L55.6932 41.7405L55.6773 41.8418L55.5871 42.0148L55.543 42.0287L55.5571 42.0724L55.3036 42.4174L55.051 42.6898L54.7773 42.8967L54.5116 43.0529L54.3421 43.1305L53.6802 43.3396L53.262 43.3996L52.94 43.3809L52.655 43.3265L52.5166 43.2739L52.5109 43.7091L52.4479 44.042L52.3489 44.3382L52.1686 44.6841L51.9301 45.0002L51.6334 45.2866L51.3376 45.5004L51.0869 45.6278L50.6898 45.7532L50.2936 45.8062L49.8542 45.8006L49.4158 45.7224L49.0295 45.5796L48.7606 45.4238L48.5578 45.2471L48.3921 45.0346L48.2987 44.8956L48.2978 44.9681L48.341 45.0267L48.4325 45.3108L48.4136 45.6297L48.2995 45.9547L48.2315 46.1207L48.0671 46.3652L47.7775 46.6735L47.3043 47.0156L46.9503 47.1997L46.6705 47.3122L46.4499 47.3819L46.0166 47.4706L45.5331 47.4789L45.1238 47.4156L44.7445 47.2947L44.4244 47.131L44.2648 47.0129L44.2137 47.005L44.2118 47.15L44.1277 47.4174L44.0836 47.4313L44.0676 47.5327L43.8803 47.8567L43.6498 48.1222L43.3902 48.3727L43.0132 48.6363L42.6592 48.8204L42.218 48.9598L41.8439 49.0058L41.4998 48.9941L41.0614 48.916L40.7553 48.796L40.3479 48.5876L40.0217 48.3295L39.7547 48.0287L39.5749 47.7725L39.4182 47.4368L39.3206 47.0583L38.7348 47.0508L38.3325 47.0093L38.3296 47.2269L38.2446 47.5668L38.1385 47.8411L37.9953 48.1512L37.8681 48.3599L37.7037 48.6045L37.4432 48.9276L37.1535 49.2358L36.7686 49.5501L36.5099 49.7281L36.3033 49.8415L35.7738 50.0088L35.5321 50.013L35.4588 50.0121L35.4743 50.5128L35.4343 50.7662L35.3663 50.9322L35.255 51.0396L35.1517 51.0963L34.9752 51.152L34.7044 51.1413L34.4204 51.0143L34.2176 50.8376L34.0379 50.5814L33.9525 50.3917L33.5042 50.5093L33.108 50.5622L32.9686 50.5822L32.8855 50.777L32.7883 50.9281L32.7441 50.9421L32.7352 51.0653L32.6671 51.2312L32.5338 51.3456L32.3573 51.4014L32.1597 51.3916L31.8757 51.2646L31.6279 51.1744L31.4974 51.0712L31.397 50.9103L31.3406 50.7354L31.3144 50.503L31.2501 50.3788L31.0243 50.2816L30.7042 50.1179L30.4935 49.9919L30.3982 49.9979L30.3611 50.0337L30.0963 50.1174L29.8917 50.0857L29.6809 49.9597L29.5373 49.7402L29.4669 49.5217L29.4336 49.2674L29.3693 49.1432L29.0431 48.8851L28.6165 48.4662L28.3213 48.0779L28.0772 47.6976L27.8562 47.2377L27.638 46.5603L27.5423 46.0367L27.5128 45.4923L27.5345 44.9557L27.5914 44.5284L27.5271 44.4043L27.4768 44.3239L27.4065 44.1053L27.4173 43.8371L27.4633 43.6781L27.5685 43.4763L27.7168 43.3331L27.9234 43.2197L28.2393 43.1439L28.4867 42.7046L28.614 42.4958L28.8234 42.1648L29.1591 41.6976L29.4267 41.3964L29.7234 41.11L30.0412 40.8892L30.2919 40.7618L30.7552 40.6154L31.1514 40.5625L31.5616 40.5532L31.7602 40.4905L32.0621 40.371L32.369 40.4185L32.6239 40.5306L32.9309 40.578L33.5529 40.6223L34.0936 40.7163L34.5531 40.86L34.8592 40.98L35.2014 41.1367L35.5867 41.352L35.8988 41.5664L36.3555 41.9277L36.5583 42.1044L36.8474 42.3983L37.2299 42.8312L37.6044 43.3148L37.8846 43.7319L38.0634 44.0606L38.1629 44.2941L38.2262 44.4907L38.2535 44.6507L38.6417 44.6484L39.3739 44.6578L39.3758 44.5127L39.4528 44.2236L39.581 43.9423L39.7824 43.6619L40.0791 43.3756L40.397 43.1548L40.6697 43.0204L41.2433 42.8392L41.5442 42.7923L41.9324 42.79L42.3709 42.8681L42.7351 43.0179L43.0252 43.2393L43.2199 43.4666L43.3635 43.6861L43.3926 43.701L43.3251 43.2649L43.389 42.8594L43.5472 42.5205L43.7336 42.269L44.0303 41.9826L44.3702 41.7549L44.5988 41.6345L44.8345 41.5359L45.3269 41.4044L45.701 41.3584L46.1695 41.3789L46.5567 41.4492L46.8557 41.5473L47.1397 41.6743L47.2923 41.7706L47.3434 41.7785L47.3453 41.6334L47.4223 41.3442L47.5956 40.9765L47.7599 40.7319L48.0346 40.4526L48.3153 40.2675L48.6763 40.1053L49.0584 40.0087L49.3954 39.9985L49.6804 40.0529L49.9864 40.1729L50.2262 40.3138L50.3206 40.3803L50.2812 40.0316L50.292 39.7633L50.37 39.4016L50.5212 39.0408L50.7236 38.688L50.9912 38.3867L51.2578 38.158L51.6047 37.9521L51.9657 37.7899L52.3849 37.6574L52.8694 37.5766L53.2867 37.5892L53.5716 37.6436L53.9138 37.8003L54.1677 37.9849L53.8725 37.5967L53.7148 37.3335L53.6294 37.1438L53.4675 36.6412L53.4431 36.2636L53.461 36.0172L53.538 35.728L53.6592 35.4249L53.7864 35.2162L54.0099 34.9289L54.3136 34.6643L54.6385 34.4654L55.0657 34.2823L55.4257 34.1926L55.8069 34.1684L56.165 34.2238L56.3105 34.2982L55.914 33.8216L55.6769 33.4631L55.5343 33.1711L55.4076 32.7777L55.3682 32.429L55.387 32.1101L55.457 31.799L55.5782 31.4959L55.7655 31.1719L56.0261 30.8488L56.3228 30.5624L56.6185 30.3486L56.8251 30.2351L57.3766 30.0609L57.6404 30.0497L57.816 30.0665L57.7447 29.9205L57.7114 29.6662L57.7292 29.4197L57.8063 29.1306L57.9725 28.741L58.1739 28.4606L58.3744 28.2528L58.4185 28.2389L58.326 28.0273L58.1149 27.3717L58.0544 26.9574L58.0451 26.5511L58.078 26.2758L57.8503 26.3237L57.455 26.3041L57.141 26.2348L56.7988 26.0781L56.552 25.9153L56.3492 25.7386L56.1253 25.4964L55.9456 25.2401L55.817 24.9919L55.6762 24.5548L55.6096 24.0461L55.6294 23.6547L55.7144 23.3148L55.8426 23.0335L55.9919 22.8178L56.2435 22.6179L56.3909 22.5473L56.2975 22.4082L56.2694 22.3208L56.0929 22.3766L55.8291 22.3877L55.4197 22.3244L55.0776 22.1677L54.8377 22.0268L54.5627 21.7766L54.3538 21.5055L54.2182 21.2354L54.1408 20.995L54.0944 20.6244L54.1061 20.2836L54.1691 19.9507L54.2982 19.5969L54.4184 19.3663L54.3471 19.2203L54.1396 19.4063L53.911 19.5267L53.5288 19.6233L53.2139 19.6265L52.8416 19.5275L52.5506 19.3786L52.2315 19.1424L51.9714 18.8634L51.7706 18.5416L51.5735 17.9298L51.4999 17.3992L51.4845 16.8985L51.2638 16.9682L50.8756 16.9705L50.5395 16.9081L50.1532 16.7654L49.8843 16.6096L49.6092 16.3594L49.4154 16.0595L49.33 15.8698L49.2315 15.5638L49.1841 15.2658L48.9775 15.3792L48.426 15.5535L48.0519 15.5995L47.5763 15.5571L47.2773 15.459L46.9934 15.332L46.6883 15.1395L46.4203 14.9112L46.1823 14.6252L45.9955 14.3471L45.9453 14.2667L45.889 14.0919L45.6815 14.2778L45.4228 14.4559L45.1942 14.5762L44.6206 14.7575L44.3418 14.7975L43.9977 14.7858L43.5813 14.7006L43.195 14.5579L42.9331 14.4239L42.6501 14.2244L42.4473 14.0477L42.2023 13.7399L42.0738 13.4916L42.0174 13.3168L41.9762 13.1131L41.4063 13.0043L40.9027 12.8745L40.7642 12.8219L40.683 12.8717L40.4525 13.1371L40.2379 13.3012L39.8689 13.5141L39.1319 13.8674L38.9775 13.9162L38.9967 14.1268L38.9507 14.2858L38.8986 14.3504L38.5676 14.455L38.6108 14.5136L38.7103 14.747L38.7535 14.8056L39.612 14.6788L40.3011 14.6296L41.1799 14.6408L41.9041 14.7009L42.6425 14.8047L43.2856 14.9145L43.9136 15.0531L44.3882 15.168L44.8698 15.3048L45.3875 15.4783L45.7809 15.6429L46.1451 15.7927L46.4511 15.9127L46.9097 16.1289L47.7246 16.5456L47.9353 16.6716L48.2042 16.8274L48.5455 17.0567L48.8576 17.2711L49.2059 17.5222L49.6555 17.8616L50.054 18.1932L50.3943 18.495L50.843 18.907L51.3851 19.458L51.8831 20.023L52.4162 20.6972L52.8621 21.3268L53.2638 21.9703L53.6787 22.7301L53.9921 23.4015L54.2544 24.065L54.4937 24.808L54.6889 25.565L54.839 26.4084L54.9239 27.2002L54.9595 27.8391L54.9481 28.7094L54.9034 29.3255L54.8297 29.9266L54.7338 30.5348L54.5939 31.1568L54.5168 31.446L54.4248 31.764L54.2947 32.1904L54.1656 32.5442L54.0214 32.9268L53.8932 33.2081L53.7721 33.5112L53.5768 33.8859L53.5688 33.9366L53.5247 33.9506L53.5387 33.9943L53.4946 34.0082L53.5087 34.0519L53.4646 34.0658L53.4786 34.1096L53.4345 34.1235L53.4486 34.1672L53.3213 34.3759L53.1861 34.6354L53.0589 34.8441L52.8495 35.1751L52.618 35.5131L52.3495 35.8869L52.126 36.1742L51.7762 36.5977L51.3082 37.1068L50.811 37.6009L50.2406 38.0942L49.5378 38.6292L48.836 39.0918L48.0981 39.5176L47.4052 39.8569L46.7865 40.1246L46.4846 40.2441L45.1388 40.6693L44.3013 40.8617L43.516 40.9895L42.7898 41.0744L41.9542 41.1218L41.4196 41.1222L40.907 41.1156L40.1095 41.0546L39.5025 40.9815L38.8886 40.8866L38.2605 40.7479L37.7348 40.6251L37.3044 40.4963L36.8448 40.3526L36.3492 40.1721L35.9558 40.0075L35.6498 39.8875L35.1621 39.6563L34.3473 39.2396L34.1365 39.1136L33.7732 38.8913L33.3738 38.6323L32.9312 38.3147L32.2788 37.7985L31.8371 37.4084L31.3091 36.9011L30.8975 36.4533L30.4577 35.9181L30.0259 35.3322L29.5238 34.5278L29.131 33.761L28.8677 33.17L28.7542 32.8929L28.3248 31.5599L28.1376 30.7523L28.0016 29.9525L27.9027 29.117L27.86 28.4563L27.8414 27.6436L27.8828 26.7156L27.9425 26.0707L28.0632 25.238L28.1811 24.6229L28.3281 24.0227L28.4432 23.6252L28.5883 23.17L28.7024 22.845L28.8766 22.4048L28.9978 22.1016L29.0809 21.9068L29.125 21.8929L29.141 21.7915L29.6218 20.8691L29.749 20.6604L29.9063 20.394L30.1227 20.0848L30.3913 19.7111L30.7561 19.2587L31.0237 18.9575L31.3504 18.6135L31.7584 18.2197L32.3138 17.7553L32.7428 17.4271L33.3634 17.0143L33.9761 16.6522L34.5586 16.3477L35.6787 15.8253L36.3416 15.5436L36.2961 15.1005L36.275 15.0349L36.0191 14.9954L35.99 14.9805L35.7323 15.086L35.299 15.1748L34.8226 15.2049L34.4274 15.1854L33.8354 15.0835L33.4562 14.9625L33.114 14.8058L32.7366 14.5398L32.3964 14.238L32.0791 13.8567L31.7557 13.381L31.5197 12.95L31.3277 12.505L31.2292 12.1991L31.1185 11.7044L31.066 11.2394L31.0646 10.7824L31.0914 10.4128L31.1863 9.87715L31.3314 9.42199L31.4826 9.06122L31.4906 9.01054L31.5347 8.99659L31.5507 8.89524L31.6709 8.66464L31.8502 8.39128L32.0667 8.08212L32.4014 7.68742L32.7873 7.30064L33.1723 6.98639L33.6084 6.68005L34.1619 6.3607L34.6482 6.1348ZM34.8472 6.60163L34.3608 6.82753L33.9477 7.05437L33.4896 7.36768L33.0896 7.71076L32.7408 8.06175L32.4652 8.41367L32.2337 8.75166L32.0234 9.1552L31.8792 9.53783L31.7721 9.88467L31.7172 10.1669L31.6603 10.5942L31.6607 11.1237L31.6992 11.545L31.8169 12.0615L31.8873 12.2801L32.1435 12.8492L32.4378 13.31L32.7621 13.7131L33.1164 14.0586L33.4286 14.273L33.7417 14.4149L34.0848 14.4991L34.5232 14.5772L35.0358 14.5838L35.3878 14.5448L35.4982 14.5099L35.3926 14.1821L35.3194 14.1812L35.2602 14.224L35.0616 14.2867L34.7687 14.2829L34.4697 14.1848L34.1567 14.043L33.9459 13.9169L33.5324 13.6142L33.2644 13.3859L32.9251 13.0116L32.659 12.6382L32.4229 12.2071L32.3305 11.9956L32.2108 11.6241L32.1222 11.1224L32.1058 10.6942L32.1476 10.2957L32.2556 9.87636L32.3617 9.60206L32.4899 9.32078L32.5571 9.22734L32.543 9.18363L32.6172 9.11204L32.7815 8.8675L33.1012 8.50163L33.3979 8.21526L33.6796 7.95772L34.0936 7.65835L34.5438 7.39571L34.8386 7.25441L35.4714 7.03038L36.0371 6.89981L36.6239 6.83479L37.0632 6.84042L37.5167 6.88976L37.94 6.99675L38.2461 7.11675L38.3334 7.16139L38.3775 7.14745L38.4498 7.22092L38.7478 7.39159L39.045 7.6348L39.3341 7.92868L39.5861 8.25835L39.8081 8.64568L39.9719 9.00324L40.1197 9.46216L40.2224 10.0076L40.266 10.5957L40.2781 10.7845L40.7175 10.7901L40.8349 10.7771L40.8316 10.4651L40.7439 9.89092L40.4272 8.90752L40.1278 8.27981L39.9058 7.89248L39.6036 7.48237L39.3074 7.16663L39.0103 6.92343L38.6691 6.69417L38.3781 6.54535L37.9918 6.40256L37.5684 6.29557L37.1591 6.23229L36.7638 6.21271L36.1921 6.2489L35.6635 6.34369L34.8472 6.60163ZM34.9996 7.82956L34.5353 8.04849L34.0701 8.33995L33.7814 8.57564L33.4917 8.88386L33.2302 9.27949L33.0649 9.59656L32.9508 9.92155L32.8728 10.2833L32.846 10.6529L32.8573 10.9142L32.9117 11.2341L33.0454 11.6493L33.2524 12.0654L33.5255 12.4607L33.8939 12.8499L34.2272 13.1298L34.5905 13.3521L34.8895 13.4502L35.1744 13.5047L35.2406 13.4838L35.2012 13.1351L35.1388 12.8658L34.7516 12.7956L34.4094 12.6389L34.1695 12.498L33.8513 12.1892L33.6213 11.8525L33.5571 11.7284L33.3952 11.2258L33.3567 10.8045L33.3986 10.4061L33.4906 10.0881L33.5657 9.94394L33.5517 9.90023L33.6258 9.82864L33.7681 9.59107L34.0578 9.28285L34.3685 9.04019L34.6934 8.84124L34.9661 8.7069L35.2239 8.60139L35.7313 8.44105L36.2087 8.33836L36.8175 8.26637L37.4034 8.27389L37.7615 8.32926L38.0093 8.41949L38.213 8.52366L38.5022 8.81754L38.6528 9.05887L38.7312 9.22672L38.879 9.68564L38.9686 10.1148L38.9929 10.4923L38.9511 10.8908L38.8591 11.2088L38.814 11.2953L38.8281 11.339L38.7539 11.4106L38.6116 11.6481L38.5074 11.7774L38.5999 11.9889L38.7205 12.2879L38.8749 12.2391L39.0744 12.1038L39.2237 11.8881L39.374 11.5999L39.459 11.26L39.5008 10.8616L39.4774 10.4115L39.4169 9.99722L39.3756 9.79357L39.1574 9.11612L39.0148 8.82412L38.7848 8.48747L38.4525 8.135L38.1695 7.9355L38.0169 7.83924L37.7912 7.74204L37.4631 7.62902L36.9955 7.53597L36.6003 7.51639L36.2633 7.52658L35.8891 7.57256L35.6835 7.61345L34.9996 7.82956ZM35.2604 9.1677L35.0909 9.24532L35.0369 9.45501L34.989 9.75907L34.888 10.2003L34.8762 10.5411L34.9076 10.9405L35.0475 11.4501L35.2112 11.8076L35.4623 12.2098L35.6942 12.4014L35.7524 12.4312L36.1486 12.3782L36.0561 12.1667L35.8281 11.685L35.5817 10.9201L35.4719 10.3529L35.4194 9.88792L35.4251 9.45273L35.481 9.09799L35.2604 9.1677ZM36.0176 8.95253L35.9659 9.54672L35.9822 9.97493L36.0709 10.4766L36.1262 10.724L36.3233 11.3359L36.5725 11.8831L36.7804 12.2268L37.2879 12.0664L37.37 11.9441L37.4339 11.5387L37.4105 11.0887L37.2998 10.5939L37.2224 10.3536L37.1018 10.0546L36.9079 9.75467L36.3757 9.0079L36.2894 8.89072L36.2161 8.88979L36.0176 8.95253ZM36.9423 8.80479L37.0789 9.00241L37.4675 9.52971L37.7036 9.96074L37.803 10.1942L37.9649 10.6968L38.0686 11.1696L38.1169 11.3951L38.1911 11.3235L38.177 11.2798L38.2512 11.2082L38.3733 10.8326L38.3991 10.5355L38.3818 10.1798L38.3617 10.0417L38.1505 9.38612L37.9999 9.1448L37.7971 8.9681L37.5202 8.86298L37.1108 8.7997L36.9423 8.80479ZM34.4633 9.63626L34.2107 9.90869L34.0083 10.2616L33.9313 10.5507L33.9125 10.8697L33.9317 11.0803L34.0725 11.5174L34.2231 11.7587L34.5123 12.0526L34.6578 12.127L34.4325 11.4277L34.3509 10.9479L34.3425 10.469L34.4064 10.0635L34.4834 9.77435L34.5295 9.61535L34.4633 9.63626ZM40.1743 11.4433L40.0973 11.7325L40.0593 11.8408L40.1095 11.9212L40.2911 12.0324L40.5972 12.1524L40.8741 12.2575L41.3487 12.3724L41.8162 12.4654L42.2185 12.5069L42.6067 12.5046L42.7461 12.4846L43.1653 12.3522L43.1953 12.2945L43.124 12.1485L42.8921 11.9569L42.4847 11.7486L41.9961 11.59L41.4995 11.482L41.0169 11.4178L40.5484 11.3973L40.2846 11.4084L40.1743 11.4433ZM35.5631 12.9003L35.7935 13.7665L35.9695 14.3129L36.092 14.4668L36.2304 14.5193L36.399 14.5142L37.4209 14.2154L38.0748 14.0569L38.4499 13.9384L38.3974 13.4735L38.3087 12.9718L38.19 12.5278L38.1055 12.2655L38.0323 12.2646L37.9581 12.3362L38.0618 12.809L38.0219 13.0624L37.9618 13.1777L37.8444 13.1907L37.729 13.0587L37.5671 12.556L37.538 12.5412L37.3615 12.5969L37.4572 13.1205L37.4473 13.3162L37.3792 13.4822L37.2539 13.5459L37.1154 13.4933L37.0793 13.4566L36.9737 13.1288L36.8982 12.7433L36.4719 12.8539L36.6197 13.3128L36.7013 13.7927L36.6976 14.0828L36.6375 14.1981L36.5201 14.2111L36.3896 14.1079L36.253 13.9102L36.1123 13.4732L36.0588 13.0808L36.0316 12.9208L35.7317 12.8952L35.5631 12.9003ZM43.5353 10.9351L43.3138 11.0773L43.1203 11.307L43.0682 11.3716L43.1255 11.4739L43.2198 11.5404L43.3231 11.4837L43.4344 11.3763L43.7512 11.228L44.0963 11.1671L44.4403 11.1788L44.7323 11.2551L44.9581 11.3523L45.1829 11.522L45.3636 11.7057L45.7307 11.6379L45.8992 11.6328L45.9874 11.6049L45.902 11.4152L45.643 11.0637L45.4332 10.8651L45.2004 10.746L44.791 10.6828L44.3367 10.706L44.1531 10.7399L43.5353 10.9351ZM39.8038 12.3308L39.6705 12.4452L39.3518 12.7385L39.0931 12.9166L38.8865 13.03L38.9058 13.2406L38.9349 13.2555L39.2287 13.1867L39.5155 13.0961L39.7592 12.9469L40.0779 12.6535L40.1301 12.5889L40.0798 12.5085L39.8259 12.3238L39.8038 12.3308ZM43.9272 11.7743L43.6544 11.9087L43.769 12.1133L43.8182 12.2662L43.8004 12.5127L43.6881 12.6926L43.5398 12.8358L43.6262 12.9529L43.7928 13.0929L44.0556 13.1543L44.2533 13.1641L44.3927 13.1441L44.7677 13.0256L44.7828 12.9968L44.7213 12.655L44.7242 12.4374L44.7631 12.2566L44.7641 12.1841L44.8383 12.1125L44.8542 12.0111L44.6806 11.8493L44.4257 11.7372L44.199 11.7125L43.9272 11.7743ZM47.2047 10.9313L46.9099 11.0727L46.7395 11.2228L46.5831 11.4167L46.4559 11.6254L46.4991 11.684L46.9957 11.7919L47.2435 11.8822L47.3468 11.8254L47.5764 11.6325L47.9083 11.4554L48.1289 11.3857L48.4077 11.3458L48.6345 11.3704L48.8241 11.4309L48.9978 11.5927L49.0982 11.7536L49.1676 12.0447L49.5107 12.1289L49.8168 12.2489L50.0205 12.353L50.1148 12.4195L50.189 12.3479L50.228 12.1671L50.2229 12.0002L50.1454 11.7598L49.9948 11.5185L49.785 11.3199L49.516 11.1641L49.203 11.0223L48.8016 10.9083L48.3632 10.8301L47.99 10.8036L47.5868 10.8347L47.2047 10.9313ZM36.6641 14.9601L36.7636 15.1936L36.864 15.3544L37.1649 15.3075L37.525 15.2178L37.9221 15.0923L38.0845 14.9929L38.1667 14.8706L38.1766 14.6749L38.1193 14.5726L37.6419 14.6753L37.2598 14.7719L36.6641 14.9601ZM42.562 13.1206L42.6544 13.3322L42.8553 13.654L43.0721 13.8744L43.3411 14.0302L43.5669 14.1274L43.9541 14.1976L44.3202 14.2023L44.6944 14.1563L45.0694 14.0378L45.3943 13.8389L45.5948 13.6311L45.6769 13.5088L45.6046 13.4353L45.2906 13.366L44.9958 13.5073L44.5545 13.6467L44.2025 13.6858L43.8805 13.6671L43.5815 13.569L43.3416 13.4281L43.1609 13.2444L43.0535 13.0617L42.6793 13.1076L42.562 13.1206ZM45.7381 12.1893L45.5898 12.3325L45.5367 12.4696L45.5709 12.6514L45.7155 12.7984L45.9704 12.9105L46.6064 12.9984L47.0899 12.9901L47.2293 12.9701L47.472 12.8934L47.5983 12.7572L47.5922 12.6628L47.4477 12.5159L47.2951 12.4196L46.9088 12.2769L46.5657 12.1927L46.1564 12.1294L45.8926 12.1405L45.7381 12.1893ZM47.7702 11.9324L47.6228 12.0031L47.7242 12.0914L48.0504 12.3495L48.2208 12.1994L48.302 12.1496L48.5888 12.059L48.6259 12.0232L48.5476 11.8554L48.4021 11.7809L48.1894 11.8L47.7702 11.9324ZM37.3409 15.8538L36.2147 16.2819L35.0895 16.6375L34.4257 16.9917L33.776 17.3896L33.2807 17.7387L32.7925 18.1096L32.3183 18.5243L32.0216 18.8107L31.5465 19.2979L31.3531 19.5275L31.0404 19.9153L30.8541 20.1668L30.6526 20.4471L30.4282 20.8069L30.2489 21.0803L30.0836 21.3974L30.0465 21.4332L30.0606 21.4769L30.0165 21.4908L30.0305 21.5345L29.9864 21.5485L29.8883 21.7721L29.708 22.118L29.5868 22.4211L29.4206 22.8107L29.2455 23.3235L29.1004 23.7787L28.9693 24.2776L28.8294 24.8996L28.7584 25.2832L28.6776 25.8625L28.6109 26.4855L28.5841 26.8552L28.5676 27.5586L28.5811 28.2044L28.642 29.1483L28.7287 29.795L28.8446 30.4566L29.0599 31.3517L29.3626 32.2914L29.6962 33.1009L29.9816 33.6849L30.3251 34.2986L30.7127 34.8985L31.1013 35.4258L31.5341 35.9391L31.9818 36.4236L32.5098 36.931L32.9736 37.3141L33.4955 37.7271L33.9311 38.0228L34.2071 38.2005L34.5412 38.4079L34.8975 38.6083L35.1082 38.7343L35.6612 39.0171L35.8869 39.1143L36.2291 39.271L36.5352 39.391L36.9797 39.5636L37.4683 39.7222L37.8987 39.851L38.4024 39.9808L39.0525 40.1125L39.6444 40.2144L40.3757 40.2963L41.0198 40.3336L41.752 40.343L42.4482 40.3156L43.2255 40.2385L43.9888 40.1177L44.7159 39.9602L45.1422 39.8496L46.0026 39.5777L46.7166 39.304L47.5419 38.9228L48.2648 38.5259L48.8704 38.1419L49.5802 37.6287L50.0614 37.2359L50.5135 36.8282L51.0478 36.2982L51.4567 35.8319L51.7172 35.5088L52.0229 35.0992L52.2844 34.7036L52.4637 34.4302L52.7262 33.9621L53.1018 33.2415L53.1999 33.0178L53.3662 32.6282L53.4953 32.2744L53.6554 31.7904L53.7705 31.3929L53.9095 30.8434L54.0434 30.1269L54.1331 29.4244L54.1787 28.7358L54.1873 28.0831L54.1658 27.4879L54.0879 26.718L53.966 25.962L53.7999 25.2199L53.4058 23.9961L53.1003 23.274L52.822 22.7119L52.4855 22.1199L52.0978 21.5201L51.7454 21.0296L51.3277 20.4874L50.9381 20.0326L50.5265 19.5848L50.1942 19.2324L49.7455 18.8204L49.3982 18.4967L49.0359 18.2019L48.7097 17.9438L48.3252 17.656L48.0131 17.4416L47.6137 17.1826L47.3377 17.0049L47.0105 16.8194L46.7998 16.6933L46.0141 16.2915L45.7883 16.1943L45.3949 16.0297L44.9284 15.8641L44.3886 15.6976L43.8849 15.5678L43.286 15.4441L42.7964 15.358L42.0139 15.2681L41.3478 15.2378L40.7399 15.2373L39.787 15.2976L38.9435 15.3956L38.4882 15.4913L37.3409 15.8538ZM48.5662 12.6681L48.477 12.7685L48.4169 12.8838L48.4812 13.0079L48.7281 13.1707L49.1275 13.4297L49.3965 13.5855L49.6072 13.7115L49.7016 13.778L49.7457 13.7641L49.818 13.8376L50.0508 13.9566L50.3568 14.0766L50.5826 14.1738L50.8675 14.2283L50.9487 14.1785L50.9215 14.0186L50.7127 13.7475L50.3513 13.3801L49.9458 13.0267L49.6698 12.8491L49.4661 12.7449L49.1671 12.6468L48.8089 12.5914L48.5662 12.6681ZM46.1745 13.5442L46.6555 14.2831L46.8935 14.569L47.1253 14.7606L47.3361 14.8866L47.6351 14.9848L47.9641 15.0253L48.2721 15.0002L48.603 14.8956L48.9279 14.6967L49.2837 14.3675L49.3589 14.2234L49.119 14.0825L48.9303 13.9495L48.828 13.9337L48.7238 14.0629L48.4581 14.2191L48.2595 14.2819L47.9295 14.3139L47.6296 14.2883L47.3817 14.1981L47.193 14.0651L47.0776 13.933L46.9992 13.7651L46.965 13.5834L46.2186 13.5303L46.1745 13.5442ZM48.0461 13.2418L47.8686 13.3701L47.7653 13.4268L47.4564 13.5244L47.4696 13.6406L47.578 13.7508L47.7165 13.8034L47.9873 13.8141L48.3403 13.7026L48.4295 13.6021L48.3652 13.478L48.1634 13.2288L48.0461 13.2418ZM51.37 12.7693L50.9278 12.9813L50.9268 13.0538L51.1146 13.2593L51.1939 13.3547L51.3192 13.291L51.5178 13.2282L51.7595 13.2241L51.9933 13.2706L52.2773 13.3976L52.473 13.5524L52.6316 13.7431L52.7311 13.9765L52.7574 14.209L52.7094 14.513L52.6564 14.6502L52.7357 14.7455L52.9605 14.9152L53.0267 14.8943L53.1249 14.6707L53.2601 14.4113L53.3291 14.1728L53.3479 13.8538L53.3217 13.6214L53.2231 13.3154L53.0654 13.0522L52.8195 12.8169L52.5576 12.683L52.2436 12.6137L51.9286 12.6169L51.7671 12.6438L51.37 12.7693ZM51.453 13.7062L51.5365 14.041L51.5848 14.2665L51.9429 14.3218L52.1617 14.3972L52.2429 14.3475L52.2819 14.1666L52.2115 13.9481L52.0308 13.7644L51.8632 13.697L51.6144 13.6793L51.453 13.7062ZM49.8456 14.5271L49.6282 14.9088L49.6033 15.1333L49.6164 15.2496L49.7502 15.6648L49.944 15.9647L50.1538 16.1633L50.3936 16.3042L50.7217 16.4172L51.0508 16.4577L51.124 16.4586L51.4991 16.3401L51.5582 16.2973L51.501 16.195L51.2851 15.9021L51.1166 15.9072L50.8678 15.8895L50.5256 15.7328L50.3088 15.5124L50.2586 15.4319L50.2022 15.2571L50.199 14.9451L50.268 14.7066L50.2249 14.648L49.8677 14.5201L49.8456 14.5271ZM50.6182 14.8127L50.5421 15.0293L50.5412 15.1018L50.6045 15.2985L50.735 15.4018L50.9537 15.4771L51.049 15.4711L50.9665 15.0638L50.9684 14.9187L50.9332 14.8094L50.7285 14.7778L50.6182 14.8127ZM51.4096 14.7793L51.4368 14.9392L51.5846 15.3981L51.7634 15.7269L52.0516 16.0933L52.3266 16.3435L52.6026 16.5211L52.8354 16.6402L53.1053 16.7234L53.4635 16.7788L53.632 16.7737L53.7423 16.7388L53.7574 16.71L53.6297 16.3892L53.4289 16.0674L53.1548 15.7447L52.8656 15.4508L52.5615 15.1858L52.2273 14.9784L51.9433 14.8514L51.5781 14.7742L51.4096 14.7793ZM54.2936 14.9033L53.8735 15.1083L53.4825 15.3282L53.4815 15.4007L53.7415 15.6797L53.8208 15.775L54.0865 15.6188L54.241 15.57L54.4827 15.5659L54.7235 15.6343L54.9563 15.7533L55.1952 15.9668L55.3248 16.1425L55.3891 16.2667L55.5228 16.6819L55.504 17.0008L55.4058 17.2245L55.3317 17.2961L55.3889 17.3983L55.5415 17.4946L55.6156 17.423L55.8772 17.0274L55.9823 16.8256L56.0664 16.5583L56.0922 16.2612L56.0599 15.9343L55.9402 15.5628L55.7464 15.2629L55.5005 15.0276L55.2897 14.9016L54.9978 14.8253L54.749 14.8076L54.4922 14.8406L54.2936 14.9033ZM54.0227 16.0243L54.1081 16.214L54.2366 16.4623L54.3 16.6589L54.3544 16.9788L54.7637 17.0421L54.8731 17.0798L54.9764 17.0231L55.0815 16.8213L55.0694 16.6325L54.9628 16.3773L54.7901 16.1429L54.6014 16.0099L54.463 15.9574L54.3606 15.9415L54.2212 15.9615L54.0227 16.0243ZM51.9407 16.7303L51.898 17.2012L51.9364 17.6225L51.9847 17.848L52.0762 18.1321L52.255 18.4608L52.5441 18.7547L52.8272 18.9542L53.06 19.0732L53.3519 19.1495L53.4984 19.1514L53.7411 19.0747L53.9115 18.9246L54.0308 18.7665L53.8247 18.2778L53.7736 18.2699L53.6553 18.3554L53.5008 18.4042L53.2591 18.4084L53.0113 18.3182L52.7935 18.1703L52.6057 17.9648L52.4269 17.636L52.3636 17.4393L52.3312 17.1125L52.304 16.9525L52.0501 16.7679L51.9849 16.7163L51.9407 16.7303ZM52.6894 17.1679L52.7096 17.3059L52.8081 17.6119L52.9587 17.8532L53.1183 17.9713L53.2498 18.002L53.653 17.9709L53.7563 17.9142L53.8953 17.3647L53.8521 17.3061L53.2663 17.2986L52.9302 17.2362L52.6894 17.1679ZM54.3398 17.5372L54.3078 17.7399L54.3271 17.9506L54.4608 18.3658L54.6687 18.7094L55.0151 19.1056L55.3624 19.4292L55.6745 19.6436L55.9805 19.7636L56.3457 19.8408L56.449 19.7841L56.473 19.6321L56.3463 19.2387L56.0741 18.7709L55.7718 18.3608L55.4104 17.9935L55.0913 17.7572L54.8003 17.6084L54.4571 17.5242L54.3398 17.5372ZM56.3717 18.412L56.436 18.5362L56.666 18.8728L56.6951 18.8877L57.0181 18.8338L57.325 18.8813L57.5869 19.0152L57.7897 19.1919L57.9122 19.3458L58.0258 19.623L58.0379 19.8117L57.983 20.0939L57.8999 20.2888L57.914 20.3325L57.8548 20.3752L57.9121 20.4775L58.2364 20.8807L58.3659 21.0564L58.4542 21.0285L58.6847 20.7631L58.7598 20.619L58.8129 20.4818L58.8237 20.2135L58.7974 19.9811L58.721 19.6682L58.522 19.2013L58.3713 18.96L58.1043 18.6592L57.8795 18.4894L57.6757 18.3852L57.3326 18.301L56.9665 18.2964L56.3717 18.412ZM54.6995 19.7109L54.5934 19.9852L54.5004 20.3757L54.5098 20.7821L54.6646 21.2629L54.8443 21.5191L55.0833 21.7325L55.4325 21.9111L55.6953 21.9725L55.9882 21.9763L56.0986 21.9414L56.008 21.5848L55.9667 21.3811L55.6677 21.283L55.5654 21.2672L55.2763 20.9733L55.219 20.871L55.1627 20.6962L55.1384 20.3186L55.1633 20.0941L55.1281 19.9848L54.8019 19.7267L54.6995 19.7109ZM56.91 19.2532L57.0067 19.7042L57.0048 19.8493L57.062 19.9516L57.3099 20.0418L57.4263 20.1013L57.5075 20.0516L57.5615 19.8419L57.5554 19.7475L57.485 19.529L57.3264 19.3383L57.1006 19.2411L56.91 19.2532ZM55.5416 20.2875L55.5688 20.4475L55.6532 20.7097L55.7546 20.7981L55.8931 20.8506L55.9964 20.7939L56.0424 20.6349L56.0584 20.5335L56.1025 20.5196L56.1034 20.4471L55.8115 20.3708L55.5857 20.2736L55.5416 20.2875ZM56.585 20.5838L56.523 20.8442L56.5183 21.2068L56.5314 21.3231L56.7144 21.8913L56.9725 22.3153L57.2105 22.6013L57.5578 22.9249L57.8699 23.1393L58.1178 23.2295L58.2863 23.2245L58.4196 23.1101L58.4727 22.9729L58.4474 22.6679L58.3076 22.1583L58.0584 21.6111L57.8143 21.2307L57.5693 20.9229L57.2722 20.6797L57.0174 20.5676L56.8127 20.536L56.7395 20.535L56.585 20.5838ZM58.7536 21.6563L58.8812 21.9771L59.037 22.3853L59.3219 22.4398L59.6059 22.5667L59.8086 22.7434L59.9814 22.9778L60.0949 23.2549L60.1352 23.5311L60.1094 23.8282L60.0333 24.0448L59.907 24.181L60.1562 24.7283L60.2627 24.9836L60.366 24.9269L60.6627 24.6405L60.8421 24.3671L60.9402 24.1435L60.9952 23.8613L60.9919 23.5493L60.83 23.0467L60.586 22.6663L60.3119 22.3436L60.066 22.1083L59.7468 21.8721L59.514 21.7531L59.2441 21.6698L58.915 21.6293L58.7536 21.6563ZM56.5988 22.8909L56.3824 23.2L56.2692 23.4525L56.1983 23.8361L56.1804 24.0825L56.2137 24.3368L56.3897 24.8831L56.5905 25.2049L56.8435 25.462L57.0613 25.6099L57.3162 25.722L57.579 25.7834L57.894 25.7802L57.9823 25.7523L57.8204 25.2497L57.5646 25.2101L57.3097 25.098L57.1431 24.9581L57.0135 24.7823L56.9492 24.6582L56.8225 24.2648L56.8052 23.9091L56.8611 23.5544L56.9893 23.2731L56.6429 22.8769L56.5988 22.8909ZM57.2353 23.5084L57.2113 23.6604L57.2436 23.9873L57.2779 24.1691L57.3412 24.3658L57.4769 24.6359L57.6144 24.761L57.7097 24.755L57.7393 24.1678L57.8243 23.8279L57.7741 23.7474L57.4972 23.6423L57.2794 23.4945L57.2353 23.5084ZM59.1106 22.9158L59.0627 23.2199L59.0908 23.3073L59.3157 23.477L59.5907 23.7272L59.6499 23.6845L59.6508 23.6119L59.5382 23.2623L59.3725 23.0498L59.1838 22.9168L59.1106 22.9158ZM58.5064 23.7568L58.4322 23.8284L58.3472 24.1683L58.3213 24.4654L58.3527 24.8648L58.5357 25.433L58.7145 25.7617L58.9093 25.9891L59.105 26.1439L59.3238 26.2193L59.5434 26.2221L59.6688 26.1584L59.7439 26.0143L59.7759 25.8116L59.7083 25.3755L59.5253 24.8073L59.3827 24.5153L59.21 24.2809L58.8917 23.9722L58.6308 23.7657L58.5064 23.7568ZM60.3697 25.7684L60.3438 26.0655L60.2668 26.3547L60.1325 26.5416L60.2048 26.6151L60.4306 26.7123L60.6413 26.8383L60.9093 27.0666L61.2486 27.4409L61.5218 27.8362L61.6926 28.2156L61.7902 28.5941L61.8225 28.9209L61.8437 28.9865L61.9178 28.9149L62.03 28.735L62.1291 28.4388L62.1611 28.2361L62.1297 27.8367L62.0743 27.5894L61.9054 27.0649L61.7205 26.6418L61.5337 26.3637L61.3239 26.1651L61.055 26.0093L60.6105 25.8368L60.4359 25.7475L60.3697 25.7684ZM58.4713 26.4405L58.5529 26.9203L58.75 27.5322L58.9781 28.0139L59.2793 28.4966L59.4812 28.7458L59.698 28.9662L59.9158 29.1141L60.1486 29.2331L60.3091 29.2787L60.5509 29.2746L60.61 29.2318L60.5317 29.064L60.3369 28.8366L59.9816 28.5636L59.6624 28.3274L59.4094 28.0702L59.2517 27.8071L59.0828 27.2826L59.0725 26.9487L59.0956 26.8692L59.0383 26.7669L58.7764 26.633L58.5225 26.4484L58.4713 26.4405ZM59.7245 26.9353L59.6795 27.0218L59.6555 27.1739L59.6686 27.2901L59.739 27.5086L59.9038 27.7937L60.1487 28.1015L60.4308 28.3735L60.6556 28.5432L60.8955 28.6841L61.1875 28.7604L61.2316 28.7465L61.2396 28.6958L61.149 28.3392L60.9491 27.9449L60.6971 27.6152L60.3427 27.2697L60.0958 27.107L59.8269 26.9512L59.7245 26.9353ZM58.6104 28.6839L58.4391 28.9065L58.3719 29L58.386 29.0437L58.3419 29.0576L58.2428 29.3538L58.2249 29.6002L58.2883 29.7969L58.3817 29.9359L58.507 29.8722L58.8398 29.6226L59.2309 29.4027L59.1736 29.3004L58.8061 28.8387L58.6766 28.6629L58.6104 28.6839ZM59.6796 29.8147L58.9857 30.2266L58.7341 30.4265L58.5557 30.6273L58.3984 30.8937L58.2853 31.1462L58.2214 31.5516L58.2387 31.9073L58.3011 32.1765L58.4156 32.3811L58.5179 32.3969L58.7766 32.2188L59.0592 31.8888L59.5081 31.1691L59.6964 30.7725L59.8025 30.4982L59.9095 30.1514L59.9927 29.9566L59.9204 29.8831L59.7749 29.8087L59.6796 29.8147ZM56.979 30.7884L56.6762 30.9804L56.4466 31.1734L56.2311 31.41L56.0147 31.7191L55.8644 32.0074L55.7874 32.2966L55.7695 32.543L55.7958 32.7755L55.9154 33.147L56.1093 33.4469L56.4125 33.7845L56.6152 33.9612L56.8842 34.117L56.9574 34.1179L57.0536 34.0393L57.0476 33.945L56.8166 33.6808L56.6238 33.3084L56.5534 33.0899L56.529 32.7123L56.607 32.3506L56.66 32.2135L56.646 32.1697L56.7201 32.0982L56.7061 32.0545L56.7802 31.9829L56.9516 31.7602L57.2403 31.5245L57.5201 31.412L57.6234 31.3553L57.7084 31.0154L57.8366 30.7342L57.8525 30.6328L57.677 30.616L57.4423 30.642L56.979 30.7884ZM60.4592 30.1222L60.3582 30.5634L60.2742 30.8307L60.3765 30.8465L60.5751 30.7838L60.8849 30.6137L61.1145 30.4207L61.2567 30.1832L61.2807 30.0311L61.2525 29.9437L60.7892 30.0901L60.5475 30.0943L60.4592 30.1222ZM57.5426 31.9346L57.2909 32.1345L57.1266 32.379L57.0135 32.6315L56.9806 32.9067L57.0861 33.2345L57.2377 33.4033L57.3973 33.5214L57.9888 33.0938L58.1804 33.0092L57.9203 32.7302L57.7556 32.4451L57.5867 31.9207L57.5426 31.9346ZM60.0399 31.3863L59.9126 31.595L59.8075 31.7968L59.7103 31.9479L59.9482 32.2339L60.0979 32.5477L60.1655 32.9838L60.1467 33.3028L60.0776 33.5413L59.9574 33.7719L59.7499 33.9578L59.5434 34.0713L59.4414 34.585L59.3203 34.8881L59.2142 35.1624L59.2212 35.1843L59.6184 35.0588L59.862 34.9096L60.0916 34.7167L60.3441 34.4443L60.5606 34.1351L60.793 33.7246L60.9221 33.3708L60.986 32.9654L60.9607 32.6603L60.841 32.2888L60.6402 31.9671L60.1995 31.5044L60.091 31.3942L60.0399 31.3863ZM30.4148 41.4453L29.9134 41.7L29.6177 41.9139L29.343 42.1933L29.0745 42.567L28.828 42.9338L28.6195 43.1923L28.6627 43.2509L28.9617 43.3491L29.2457 43.476L29.3119 43.4551L29.411 43.159L29.5161 42.9572L29.7617 42.6629L29.9692 42.477L30.3532 42.2352L30.5006 42.1646L31.1625 41.9554L31.5587 41.9025L31.7492 41.8904L31.524 41.1911L30.9884 41.264L30.4148 41.4453ZM32.0685 40.995L32.0225 41.154L32.0427 41.2921L32.2459 41.9984L32.25 42.2378L32.197 42.3749L32.2622 42.4266L32.4307 42.4215L32.6072 42.3657L32.7185 42.2583L32.8087 42.0854L32.8045 41.8459L32.6778 41.4526L32.4769 41.1308L32.3103 40.9908L32.223 40.9462L32.0685 40.995ZM59.3525 32.4221L59.1 32.6945L58.8634 32.8656L58.9356 32.9391L59.0741 32.9916L59.2698 33.1465L59.3994 33.3222L59.4777 33.4901L59.5439 33.4692L59.613 33.2307L59.6008 33.0419L59.4319 32.5174L59.3746 32.4151L59.3525 32.4221ZM33.1721 41.176L33.3129 41.613L33.3753 41.8823L33.9521 42.013L34.2802 42.126L34.5863 42.246L34.79 42.3502L34.8341 42.3362L34.9064 42.4097L35.2044 42.5804L35.5527 42.8315L35.9291 43.17L36.2755 43.5662L36.5487 43.9614L36.7988 44.4362L36.9335 44.7788L37.0137 44.8016L37.6005 44.7366L37.7108 44.7018L37.4757 44.1982L37.1453 43.7007L36.7276 43.1585L36.3883 42.7842L36.0048 42.4238L35.519 42.0476L35.243 41.8699L34.9159 41.6844L34.5376 41.4909L34.1001 41.3402L33.6767 41.2332L33.2162 41.162L33.1721 41.176ZM58.3192 33.5913L58.0756 33.7405L57.8531 33.9553L57.6516 34.2356L57.4723 34.509L57.3521 34.7396L57.285 34.833L57.299 34.8767L57.2249 34.9483L57.2389 34.992L57.1948 35.006L57.0967 35.2296L57.0065 35.4025L57.0206 35.4463L56.9765 35.4602L56.8783 35.6838L56.7201 36.0227L56.5398 36.3686L56.4708 36.6071L56.498 36.7671L56.6355 36.8922L56.774 36.9447L56.9204 36.9466L57.2363 36.8709L57.465 36.7505L57.6875 36.5357L57.8889 36.2554L58.0462 35.989L58.2255 35.7156L58.473 35.2763L58.5781 35.0745L58.6993 34.7714L58.8134 34.4464L58.8843 34.0628L58.8811 33.7508L58.8168 33.6267L58.6713 33.5523L58.569 33.5365L58.3192 33.5913ZM55.1914 34.7481L54.8304 34.9104L54.5938 35.0814L54.3563 35.325L54.1689 35.6491L54.0778 35.8945L54.029 36.2711L54.0472 36.5543L54.0744 36.7142L54.1941 37.0857L54.3368 37.3778L54.4954 37.5684L54.6339 37.621L54.7662 37.5791L54.8634 37.428L54.8644 37.3555L54.7527 36.9333L54.7274 36.6283L54.7983 36.2447L54.8434 36.1583L54.8293 36.1146L54.9035 36.043L55.0157 35.8631L55.2232 35.6771L55.4889 35.5209L55.7537 35.4373L56.2231 35.3852L56.3705 35.3146L56.4456 35.1705L56.4466 35.0979L56.3903 34.9231L56.2457 34.7762L56.027 34.7008L55.8223 34.6692L55.6026 34.6664L55.1914 34.7481ZM30.9342 42.6054L30.5953 42.7606L30.2996 42.9745L30.047 43.2469L29.8897 43.5133L29.7695 43.7439L29.8338 43.868L30.0356 44.1173L30.1412 44.4451L30.1092 44.6478L29.997 44.8277L29.7163 45.0127L29.5328 45.0466L29.4595 45.0457L29.4215 45.154L29.4158 45.5892L29.4421 45.8217L29.5899 46.2806L29.8963 46.9302L30.1042 47.2738L30.2999 47.4286L30.6811 47.4045L30.8707 47.465L31.0153 47.6119L31.0655 47.6924L31.15 47.9546L31.1382 48.2954L31.1945 48.4702L31.332 48.5953L31.5939 48.7293L31.6892 48.7232L31.7714 48.6009L31.9197 48.4578L32.0009 48.408L32.2657 48.3244L32.4854 48.3272L32.7041 48.4025L32.9069 48.5792L32.9932 48.6964L33.0927 48.9298L33.2903 48.9396L33.5832 48.9434L33.7597 48.8876L33.8428 48.6928L33.941 48.4692L34.0673 48.333L34.1485 48.2832L34.4132 48.1996L34.5888 48.2163L34.8146 48.3135L34.9962 48.4247L35.1497 48.4484L35.4145 48.3648L35.8055 48.1449L36.006 47.9371L36.2304 47.5772L36.3205 47.4043L36.3065 47.3606L36.3506 47.3466L36.4877 46.9422L36.5737 46.5298L36.5826 46.4066L36.5254 46.3043L36.4029 46.1504L36.2902 45.8007L36.287 45.4887L36.341 45.279L36.4312 45.1061L36.3045 44.7127L36.1045 44.3184L35.8314 43.9232L35.5282 43.5856L35.217 43.2987L34.9049 43.0843L34.636 42.9285L34.5125 42.8472L34.2867 42.75L34.0319 42.6379L33.5723 42.4941L33.3095 42.4327L33.2283 42.4825L33.079 42.6982L32.9236 42.8195L32.6438 42.932L32.3429 42.9789L32.0359 42.9315L31.8101 42.8343L31.6074 42.6576L31.4558 42.4888L31.3825 42.4878L31.1328 42.5427L30.9342 42.6054ZM27.981 43.8515L27.8257 43.9729L27.7806 44.0593L27.8378 44.1616L27.9402 44.1775L28.2631 44.1236L28.5631 44.1492L28.9132 44.2552L29.3066 44.4199L29.5474 44.4882L29.5694 44.4813L29.4981 44.3353L29.3024 44.1804L29.0334 44.0246L28.7715 43.8907L28.4505 43.7995L28.2749 43.7828L28.1576 43.7958L27.981 43.8515ZM28.1833 44.6303L28.1574 44.9274L28.1428 45.4858L28.1582 45.9866L28.2117 46.379L28.253 46.5827L28.4219 47.1071L28.6429 47.567L28.9301 48.0059L29.1822 48.3356L29.384 48.5848L29.4642 48.6076L29.5483 48.3403L29.5943 48.1813L29.6624 48.0153L29.6995 47.9795L29.6854 47.9358L29.7596 47.8642L29.7535 47.7698L29.5869 47.6299L29.3841 47.4532L29.1823 47.2039L29.0105 46.897L28.9181 46.6855L28.7069 46.0299L28.6324 45.5719L28.6301 45.1874L28.6921 44.927L28.7381 44.768L28.5414 44.6857L28.2274 44.6164L28.1833 44.6303ZM55.6367 35.9798L55.4442 36.137L55.317 36.3457L55.2691 36.6498L55.2883 36.8604L55.3577 37.1515L55.4751 37.1384L55.8281 37.0269L55.9455 37.0139L55.9905 36.9274L56.0403 36.4783L56.1493 35.9864L56.1432 35.892L55.9677 35.8753L55.6367 35.9798ZM52.0173 38.3273L51.7225 38.4686L51.4047 38.6894L51.1451 38.94L50.9587 39.1915L50.8765 39.3138L50.8906 39.3575L50.8465 39.3715L50.7403 39.6458L50.6764 40.0512L50.6886 40.2399L50.8083 40.6114L50.8655 40.7137L50.9909 40.6501L51.3899 40.3795L51.3927 40.1619L51.4055 39.7486L51.4684 39.4157L51.6116 39.1056L51.7529 38.9406L52.0778 38.7416L52.4087 38.637L52.7829 38.5911L53.134 38.6246L53.3818 38.7148L53.4771 38.7088L53.7747 38.3499L53.6443 38.2466L53.4406 38.1425L53.0824 38.0871L52.7965 38.1052L52.613 38.1391L52.0173 38.3273ZM58.5681 36.4019L58.3146 36.7469L58.062 37.0193L57.9728 37.1197L58.0883 37.2518L58.1657 37.4921L58.1699 37.7316L58.0929 38.0208L57.9807 38.2007L57.7802 38.4085L57.5657 38.5726L57.4624 38.6293L56.977 38.7827L56.662 38.7859L56.4062 38.7463L56.2719 38.9332L56.2268 39.0197L56.2841 39.122L56.5742 39.3433L56.8722 39.514L57.2153 39.5982L57.435 39.601L57.5744 39.5811L57.7509 39.5253L58.0387 39.3621L58.2683 39.1692L58.5288 38.8461L58.7162 38.5221L58.7913 38.3779L58.7772 38.3342L58.8213 38.3203L58.9434 37.9446L59.0224 37.5104L59.0191 37.1984L59.006 37.0822L58.8793 36.6888L58.7136 36.4763L58.5681 36.4019ZM55.4534 37.675L55.0403 37.9018L54.53 38.2798L54.1 38.6805L53.8916 38.939L53.7343 39.2054L53.6211 39.4578L53.5882 39.7331L53.6445 39.9079L53.7971 40.0041L53.9876 39.9921L54.1862 39.9293L54.6214 39.6955L55.0354 39.3962L55.4875 38.9885L55.7702 38.6584L55.9716 38.378L56.1289 38.1117L56.2491 37.8811L56.273 37.729L56.2378 37.6198L56.0923 37.5454L55.8506 37.5495L55.4534 37.675ZM56.7964 37.4673L56.7325 37.8728L56.6255 38.2196L56.6095 38.3209L56.756 38.3228L56.9174 38.2959L57.116 38.2331L57.3596 38.0839L57.538 37.8831L57.6212 37.6883L57.6179 37.3763L57.6038 37.3326L57.2217 37.4293L56.7964 37.4673ZM52.3951 39.1229L52.1514 39.2721L52.0171 39.459L51.934 39.6538L51.9002 40.0016L51.9133 40.1178L52.3396 40.0072L52.6987 39.9901L52.9324 40.0366L53.0347 40.0524L53.0174 39.6967L53.0494 39.494L53.1555 39.2197L53.2156 39.1044L53.1945 39.0388L52.8945 39.0132L52.6598 39.0392L52.3951 39.1229ZM48.7499 40.6358L48.396 40.8199L48.1814 40.984L48.003 41.1848L47.8828 41.4154L47.8049 41.7771L47.8283 42.2272L47.8545 42.4597L47.8897 42.569L48.2868 42.4435L48.3409 42.2338L48.4259 41.8939L48.554 41.6127L48.7475 41.383L49.0061 41.205L49.1977 41.1204L49.4404 41.0437L49.6751 41.0177L49.9309 41.0572L50.1125 41.1684L50.221 41.2786L50.3022 41.2288L50.4655 41.0568L50.3862 40.9615L50.1102 40.7839L49.9065 40.6797L49.5493 40.5518L49.2714 40.5192L49.0147 40.5522L48.7499 40.6358ZM44.8781 42.1241L44.4579 42.3291L44.2213 42.5001L44.0429 42.701L43.8556 43.025L43.7795 43.2417L43.7175 43.502L43.7236 43.5964L43.7527 43.6113L44.1639 43.5295L44.2742 43.4947L44.3954 43.1915L44.5447 42.9758L44.8043 42.7253L45.0259 42.583L45.1512 42.5193L45.5483 42.3938L45.9365 42.3916L46.2506 42.4609L46.5345 42.5878L46.7734 42.8013L46.8668 42.9403L46.9452 43.1082L47.2701 42.9092L47.4916 42.767L47.3551 42.5694L47.1171 42.2834L46.9143 42.1067L46.7106 42.0025L46.3675 41.9183L46.0164 41.8848L45.5911 41.9229L45.3193 41.9847L44.8781 42.1241ZM40.7734 43.4933L40.4194 43.6774L40.1899 43.8703L39.9664 44.1576L39.7861 44.5035L39.725 44.6913L39.8705 44.7657L40.1625 44.842L40.2719 44.8797L40.316 44.8657L40.3911 44.7216L40.5475 44.5278L40.8291 44.2702L41.1319 44.0782L41.3455 43.9867L41.5882 43.91L41.845 43.877L42.0496 43.9086L42.2604 44.0347L42.397 44.2323L42.5664 44.1547L42.8101 44.0055L42.7969 43.8892L42.6383 43.6986L42.4205 43.5507L42.1948 43.4535L41.9319 43.3921L41.5076 43.3576L41.1996 43.3827L40.9719 43.4305L40.7734 43.4933ZM52.1043 40.6353L51.4776 40.9537L51.0565 41.2312L50.6565 41.5743L50.4781 41.7752L50.2617 42.0843L50.1565 42.2861L50.1255 42.4163L50.1677 42.5474L50.3133 42.6218L50.4888 42.6386L50.7676 42.5986L51.3192 42.4243L51.7544 42.1905L52.2497 41.8414L52.5384 41.6057L52.7539 41.3691L52.9182 41.1245L52.9722 40.9149L52.968 40.6754L52.9117 40.5006L52.7953 40.4411L52.7221 40.4401L52.1043 40.6353ZM49.4487 41.5226L49.146 41.7145L48.9746 41.9372L48.8905 42.2046L48.9117 42.2701L49.3811 42.2181L49.4834 42.2339L49.5867 42.1772L49.6618 42.0331L49.6477 41.9894L49.7069 41.9466L49.6928 41.9029L49.767 41.8313L49.9684 41.551L49.9473 41.4854L49.86 41.4408L49.6914 41.4459L49.4487 41.5226ZM37.262 45.4214L37.1357 45.5576L37.0826 45.6948L37.0666 45.7962L37.1229 45.971L37.2314 46.0812L37.4642 46.2002L37.8364 46.2993L38.2457 46.3626L38.7654 46.391L39.2047 46.3967L39.7985 46.3535L40.0553 46.3205L40.4745 46.1881L40.5717 46.037L40.5154 45.8621L40.3056 45.6636L40.0366 45.5078L39.7085 45.3948L39.2992 45.3315L38.4205 45.3202L37.6802 45.3615L37.3502 45.3935L37.262 45.4214ZM45.3642 43.0299L45.1497 43.194L45.0004 43.4097L44.9924 43.4603L45.2332 43.5287L45.5172 43.6557L45.8955 43.8492L46.0781 43.8878L46.2706 43.7306L46.4269 43.5368L46.472 43.4503L46.4227 43.2973L46.3073 43.1653L46.0965 43.0393L45.8337 42.9778L45.5628 42.9671L45.3642 43.0299ZM30.4848 47.8518L30.2853 47.987L30.1069 48.1879L30.0088 48.4115L29.9388 48.7225L29.9331 49.1577L29.9523 49.3683L30.0307 49.5362L30.0668 49.5729L30.1922 49.5092L30.3635 49.2866L30.3495 49.2429L30.3936 49.2289L30.5227 48.8751L30.6458 48.4269L30.6946 48.0503L30.6454 47.8973L30.5801 47.8457L30.4848 47.8518ZM53.621 40.5895L53.6331 40.7783L53.5552 41.14L53.442 41.3924L53.3298 41.5723L53.4321 41.5882L53.741 41.4906L53.9847 41.3413L54.1631 41.1405L54.2462 40.9457L54.2631 40.7718L54.1857 40.5314L53.9068 40.5714L53.7092 40.5616L53.621 40.5895ZM55.0039 40.1284L54.5758 40.3841L54.7034 40.7049L54.7367 40.9593L54.6968 41.2126L54.6137 41.4074L54.4202 41.6371L54.1907 41.83L53.8588 42.0071L53.4175 42.1466L53.1978 42.1437L53.0303 42.0763L52.965 42.0247L52.8617 42.0814L52.5951 42.3101L52.3805 42.4742L52.4599 42.5695L52.7579 42.7402L53.0278 42.8235L53.2766 42.8412L53.4892 42.8221L54.1291 42.62L54.476 42.414L54.7056 42.2211L54.899 41.9915L55.1234 41.6316L55.2746 41.2708L55.3526 40.9091L55.3484 40.6697L55.285 40.473L55.1846 40.3121L55.0921 40.1006L55.0039 40.1284ZM41.3389 44.4944L40.9478 44.7143L40.5418 44.9629L40.5629 45.0285L40.7877 45.1982L41.0045 45.4187L41.1482 45.6381L41.2336 45.8278L41.2739 46.104L41.2049 46.3425L41.1006 46.4718L41.187 46.5889L41.4771 46.8103L41.7028 46.9075L41.9005 46.9173L42.1431 46.8406L42.3206 46.7123L42.4629 46.4747L42.4948 46.272L42.0855 46.2087L41.7945 46.0599L41.5776 45.8395L41.4782 45.6061L41.489 45.3378L41.5801 45.0923L41.7294 44.8766L41.9599 44.6112L41.9829 44.5317L41.8895 44.3926L41.7801 44.355L41.3389 44.4944ZM43.6127 44.2334L43.1926 44.4384L42.7494 44.7229L42.3645 45.0371L42.149 45.2737L42.0959 45.4109L42.1161 45.549L42.2686 45.6452L42.5245 45.6848L42.8324 45.6597L43.2737 45.5203L43.7529 45.2725L44.8158 44.6478L45.2298 44.3484L45.3561 44.2122L45.2838 44.1387L45.0872 44.0564L44.6778 43.9931L44.414 44.0043L44.2746 44.0242L43.6127 44.2334ZM48.2652 42.98L47.7638 43.2347L47.2836 43.555L46.8465 43.9339L46.5719 44.2133L46.3334 44.5294L46.2583 44.6735L46.2573 44.7461L46.3878 44.8493L46.5704 44.8879L46.783 44.8689L47.2463 44.7225L48.1308 44.2986L48.5589 44.0429L48.9068 43.7645L49.2035 43.4781L49.4711 43.1768L49.5532 43.0546L49.4477 42.7268L49.2791 42.7319L48.8388 42.7988L48.2652 42.98ZM37.0914 46.7033L36.9984 47.0938L36.8984 47.4625L36.8214 47.7517L36.6551 48.1413L36.5049 48.4295L36.2814 48.7168L36.0739 48.9028L35.8082 49.059L35.4773 49.1635L35.3599 49.1765L35.3791 49.3872L35.4073 49.4746L36.0692 49.2654L36.379 49.0953L36.6898 48.8526L37.0165 48.5086L37.2851 48.1348L37.4954 47.7313L37.5485 47.5941L37.5344 47.5504L37.5785 47.5365L37.6936 47.139L37.7476 46.9293L37.6753 46.8558L37.4125 46.7944L37.1355 46.6893L37.0914 46.7033ZM30.863 49.1769L30.7278 49.4363L30.778 49.5168L31.1051 49.7023L31.3229 49.8502L31.375 49.7856L31.4389 49.3802L31.4028 49.3434L31.2714 49.3127L31.2272 49.3267L31.2132 49.2829L31.169 49.2969L31.0967 49.2234L30.9512 49.149L30.863 49.1769ZM50.1081 43.1923L49.9799 43.4735L49.8456 43.6604L49.593 43.9328L49.585 43.9835L49.8118 44.0082L49.9291 43.9952L50.1056 43.9394L50.3493 43.7902L50.4835 43.6033L50.5295 43.4443L50.4883 43.2407L50.423 43.189L50.1742 43.1713L50.1081 43.1923ZM32.222 48.8679L32.0656 49.0617L31.9665 49.3579L31.9027 49.7633L31.8688 50.1111L31.8791 50.4449L31.8922 50.5612L32.0119 50.9327L32.1212 50.9703L32.2466 50.9067L32.4029 50.7128L32.5231 50.4822L32.6081 50.1423L32.65 49.7439L32.6467 49.4319L32.6265 49.2938L32.5139 48.9442L32.4055 48.834L32.3543 48.8261L32.222 48.8679ZM45.6053 44.7595L45.3166 44.9952L45.0208 45.209L45.1795 45.3997L45.3461 45.5396L45.5789 45.6587L45.8347 45.6982L46.0474 45.6792L46.2901 45.6025L46.5187 45.4821L46.4976 45.4166L46.1103 45.3463L45.8775 45.2272L45.762 45.0952L45.6776 44.8329L45.6715 44.7386L45.6053 44.7595ZM51.6205 42.907L51.4731 42.9776L50.9948 43.1529L51.0191 43.5304L50.9351 43.7977L50.8008 43.9846L50.6154 44.1636L50.3938 44.3058L50.1802 44.3974L49.8793 44.4443L49.5723 44.3969L49.3616 44.2708L49.2963 44.2192L49.0968 44.3545L48.7048 44.6469L48.7912 44.7641L49.0521 44.9705L49.0963 44.9566L49.1685 45.0301L49.4746 45.1501L49.8618 45.2203L50.25 45.218L50.3894 45.1981L50.941 45.0238L51.2217 44.8388L51.5335 44.5236L51.6908 44.2572L51.7278 44.2214L51.7138 44.1777L51.7579 44.1637L51.864 43.8894L51.9199 43.5347L51.9007 43.3241L51.8022 43.0181L51.7088 42.8791L51.6205 42.907ZM44.6077 45.4358L44.1134 45.7124L44.0763 45.7482L44.2471 46.1276L44.3978 46.369L44.6146 46.5894L44.8836 46.7452L45.1314 46.8354L45.4895 46.8908L45.9439 46.8676L46.1275 46.8337L46.6791 46.6594L47.033 46.4753L47.3288 46.2615L47.5813 45.989L47.6635 45.8668L47.8636 45.1294L47.8565 45.1075L47.1355 45.3594L47.0082 45.5682L46.8228 45.7472L46.498 45.9461L46.2332 46.0298L45.8811 46.0688L45.5812 46.0432L45.3695 45.9897L45.1437 45.8925L44.8687 45.6423L44.7401 45.394L44.6077 45.4358ZM39.8562 46.9854L39.8393 47.1593L39.8524 47.2755L39.972 47.647L40.1518 47.9032L40.3325 48.0869L40.5503 48.2348L40.6958 48.3092L40.9506 48.4212L41.2426 48.4975L41.6158 48.5241L42.019 48.493L42.5044 48.3396L42.9175 48.1128L43.2062 47.8771L43.4067 47.6693L43.6081 47.3889L43.7283 47.1583L43.7903 46.898L43.7791 46.6367L43.6242 46.1559L43.5238 45.995L43.1999 46.1215L43.1187 46.1712L43.1008 46.4176L43.0247 46.6343L43.0238 46.7068L42.9496 46.7784L42.8003 46.9941L42.5778 47.2089L42.3341 47.3581L42.1135 47.4278L41.7835 47.4598L41.4474 47.3975L41.2216 47.3003L40.9898 47.1087L40.8673 46.9548L40.7748 46.7432L40.2674 46.9036L39.8562 46.9854ZM34.3836 48.7868L34.3085 48.9309L34.2765 49.1336L34.3079 49.533L34.3633 49.7804L34.5392 50.3267L34.6467 50.5094L34.7702 50.5908L34.8514 50.5411L34.8763 50.3165L34.8548 49.7214L34.7872 49.2853L34.6605 48.8919L34.5451 48.7598L34.516 48.745L34.3836 48.7868ZM33.1874 49.5259L33.1546 49.8011L33.1296 50.0257L33.1437 50.0694L33.5028 50.0523L33.8328 50.0202L33.7643 49.6566L33.7291 49.5474L33.4433 49.5655L33.1874 49.5259Z" fill="black"/>
<path d="M24.9629 47.6481L26.2314 47.7621L26.9422 47.872L27.5335 48.0172L28.2108 48.2393L28.8147 48.5009L29.3473 48.779L29.8612 50.1579L30.7355 49.6178L31.2597 49.9873L31.6728 50.3008L32.0817 50.66L32.2956 50.8635L32.5724 51.1417L32.8262 51.4179L32.9961 51.5944L33.3316 51.993L33.4763 52.1903L33.663 52.4374L33.8475 52.7073L34.0531 53.0022L34.3152 53.4403L34.4956 53.7559L34.7725 54.2875L35.0053 54.7921L35.2717 55.4379L35.4731 56.0318L35.6662 56.7171L35.8131 57.3983L35.9159 58.0524L35.9769 58.6567L36.0021 59.1427L35.996 59.7179L35.8976 60.7916L35.7594 61.5393L35.5834 62.1914L35.3906 62.7729L35.1517 63.3503L34.9212 63.8363L34.6131 64.4075L34.2861 64.9309L33.8606 65.5145L33.5986 65.8365L33.3387 66.1356L33.0808 66.4118L32.7999 66.686L32.6218 66.8543L32.343 67.1056L32.1648 67.2739L31.9656 67.4172L31.6889 67.6457L31.4164 67.8285L31.0432 68.0944L30.6994 68.2938L30.2822 68.5327L29.7225 68.8049L29.19 69.0334L28.8042 69.183L28.1333 69.3992L27.2779 69.5987L26.5693 69.7193L25.6782 69.8005L24.7934 69.8131L24.307 69.7924L23.7073 69.7385L22.9043 69.6203L22.0614 69.4294L21.2918 69.1991L20.6167 68.9542L19.8786 68.6345L19.2348 68.3003L18.7043 67.9992L18.222 67.6795L17.8508 67.4158L17.4818 67.1293L17.0707 66.793L16.7499 66.4878L16.45 66.2075L16.1543 65.8815L15.9845 65.705L15.4602 65.0821L15.3154 64.8848L15.068 64.5401L14.9065 64.2723L14.8436 64.1975L14.5814 63.7594L14.422 63.4687L14.2647 63.1551L14.0885 62.7938L13.8053 62.0774L13.6248 61.5084L13.4234 60.6611L13.3226 59.9841L13.268 59.3113L13.2594 58.6426L13.2887 58.0694L13.3201 57.7267L13.4436 56.8856L13.6384 56.0279L13.8731 55.2428L14.1203 54.5741L14.4431 53.843L14.8099 53.1389L15.2479 52.4182L15.5162 52.0277L15.8872 51.5313L16.252 51.1034L16.5873 50.742L16.8179 50.5094L17.0464 50.2996L17.2246 50.1313L17.929 49.5497L18.2015 49.3669L18.4992 49.1633L18.9667 48.8829L19.43 48.6481L19.9394 48.4175L20.5411 48.1952L21.2812 47.9853L21.8976 47.8564L22.6985 47.7441L23.4722 47.6754L24.011 47.6317L24.4534 47.6254L24.9629 47.6481ZM25.439 48.2897L25.4138 48.3105L25.3615 48.8816L25.5628 48.9688L26.1332 49.0891L26.477 49.143L26.823 49.1741L26.9676 49.118L27.0829 48.875L27.1562 48.5822L27.022 48.5241L26.544 48.412L26.1078 48.3498L25.439 48.2897ZM25.0679 48.2794L24.5102 48.2754L23.7931 48.234L23.6296 48.2423L23.6338 48.45L23.6737 48.776L24.1601 48.7967L24.9715 48.8235L25.0805 48.3957L25.0909 48.2815L25.0679 48.2794ZM23.3025 48.259L22.2898 48.3983L22.2395 48.4399L22.3926 48.7991L22.4094 48.8697L22.5709 48.8842L23.2984 48.8114L23.3298 48.7221L23.3486 48.2631L23.3025 48.259ZM27.4498 48.6777L27.3639 49.1076L27.3472 49.2903L28.0475 49.5145L28.362 49.6349L28.4543 49.6431L28.7288 49.1841L28.7351 49.1156L28.1962 48.906L27.542 48.686L27.4498 48.6777ZM21.8621 48.4981L21.3862 48.6166L20.883 48.7787L20.2813 49.001L20.3191 49.0965L20.4659 49.2709L20.5267 49.3685L20.6672 49.3581L21.1473 49.1939L21.6484 49.0547L22.0048 48.9716L21.9544 48.7598L21.8852 48.5002L21.8621 48.4981ZM29.0245 49.2568L28.8233 49.6763L28.7877 49.8113L29.3664 50.0936L29.4776 50.1497L29.5698 50.1579L29.6307 50.1579L29.4776 49.714L29.3369 49.4L29.0245 49.2568ZM25.0702 49.27L24.5376 49.2452L23.8856 49.2557L23.2293 49.3119L22.3802 49.4429L21.7135 49.6133L21.2103 49.7754L20.8246 49.925L20.4619 50.0767L19.9252 50.3509L19.4807 50.6335L19.2082 50.8163L19.0321 50.9617L18.833 51.105L18.5311 51.3543L18.3529 51.5225L17.9944 51.8819L17.6066 52.3077L17.3174 52.6732L16.917 53.2361L16.6173 53.7159L16.2505 54.42L15.9257 55.1739L15.7057 55.799L15.4899 56.6319L15.3873 57.2445L15.3182 57.9984L15.3184 58.7585L15.373 59.4313L15.478 60.0626L15.6291 60.6981L15.7927 61.1964L16.0172 61.7924L16.1724 62.1288L16.4493 62.6604L16.7744 63.1733L16.9589 63.4432L17.1666 63.7152L17.3113 63.9125L17.6468 64.3112L17.8167 64.4877L18.1145 64.7908L18.3934 65.0462L18.7604 65.3555L19.1735 65.6691L19.5237 65.9078L20.0731 66.2566L20.8951 66.6759L21.5451 66.9416L22.0861 67.1284L22.6983 67.2986L23.2686 67.4189L23.5894 67.4708L24.8118 67.5806L25.51 67.5742L26.0719 67.5326L26.7785 67.4348L27.6569 67.2374L28.2796 67.04L28.81 66.8343L29.3928 66.5642L29.7849 66.346L30.0805 66.1653L30.353 65.9825L30.6528 65.7561L30.7261 65.7166L30.7303 65.6709L30.8268 65.6335L31.1286 65.3842L31.3068 65.216L31.5102 65.027L31.8456 64.6655L32.0531 64.4308L32.3423 64.0653L32.663 63.6104L32.9921 63.0642L33.2771 62.4909L33.516 61.9135L33.7088 61.332L33.8534 60.7692L33.9413 60.3164L34.0397 59.2428L34.0332 58.5512L33.9597 57.8306L33.8359 57.1515L33.6827 56.5389L33.5211 56.0177L33.3554 55.5422L33.1645 55.0874L32.9317 54.5828L32.6548 54.0512L32.3717 53.5881L32.1472 53.2455L31.8998 52.9008L31.6712 52.6039L31.2308 52.0807L31.0609 51.9042L30.74 51.599L30.329 51.2626L29.9809 51.001L29.6307 50.7623L29.3015 50.5484L28.6808 50.2163L28.1231 49.9589L27.4479 49.714L26.8818 49.5479L26.0829 49.384L25.5776 49.3156L25.0702 49.27ZM30.4819 50.1017L29.8802 50.324L29.876 50.3697L30.3373 50.6645L30.7294 50.9531L30.9895 51.1607L31.0817 51.169L31.2892 50.9343L31.3668 50.8491L31.35 50.7785L30.874 50.3903L30.4819 50.1017ZM19.8683 49.1942L19.6 49.3313L19.2079 49.5495L18.8872 49.751L18.6147 49.9338L18.6315 50.0044L18.8915 50.212L19.0089 50.1995L19.4282 49.9378L19.8684 49.7009L20.1116 49.5846L20.0739 49.4891L19.9375 49.2004L19.8683 49.1942ZM31.6268 51.0568L31.5472 51.1648L31.3627 51.4016L31.3543 51.4929L31.6333 51.7483L31.866 51.9996L32.0359 52.176L32.3085 52.5L32.3547 52.5041L32.514 52.2881L32.6377 52.2071L32.5999 52.1115L32.0337 51.4388L31.7988 51.2104L31.6499 51.0588L31.6268 51.0568ZM18.2394 50.2225L17.7363 50.638L17.5057 50.8706L17.3778 50.9973L17.6358 51.2278L17.705 51.234L17.8811 51.0886L18.0592 50.9203L18.5372 50.5257L18.4135 50.3533L18.2855 50.2267L18.2394 50.2225ZM32.8411 52.5248L32.7594 52.6556L32.6042 52.8259L32.642 52.9215L32.9104 53.2911L33.1139 53.6088L33.2565 53.8289L33.3781 53.7707L33.5752 53.6502L33.4598 53.3865L33.2564 53.0688L33.0319 52.7262L32.8872 52.5289L32.8411 52.5248ZM17.0697 51.3151L16.9146 51.4854L16.6547 51.7845L16.2585 52.3017L15.9923 52.6693L16.0552 52.7441L16.2733 52.9019L16.3446 52.8853L16.6129 52.4948L16.9021 52.1292L17.2145 51.7657L17.3444 51.6162L17.2207 51.4438L17.0928 51.3172L17.0697 51.3151ZM33.7514 54.0115L33.483 54.1486L33.4956 54.2649L33.7326 54.7239L33.848 54.9876L33.9654 54.9751L34.0891 54.8941L34.1646 54.8318L34.1289 54.7134L33.9359 54.2815L33.8164 54.0634L33.7702 54.0593L33.7514 54.0115ZM15.7701 53.064L15.5521 53.4129L15.2419 54.0069L15.2587 54.0775L15.502 54.2145L15.5712 54.2208L15.8814 53.6267L16.0469 53.3422L16.0092 53.2467L15.8162 53.0681L15.7701 53.064ZM34.2548 55.1162L34.1542 55.1993L34.15 55.245L34.0305 55.2804L34.041 55.4195L34.2088 55.8722L34.2801 56.1089L34.4206 56.0985L34.6135 56.0237L34.5254 55.7164L34.3219 55.1453L34.2548 55.1162ZM15.0366 54.4721L14.827 54.9831L14.6363 55.5417L14.4708 56.0796L14.4855 56.1731L14.7518 56.3122L14.8231 56.2956L15.0598 55.4877L15.3385 54.7296L15.3218 54.659L15.1037 54.5012L15.0366 54.4721ZM34.7331 56.4951L34.448 56.5616L34.4606 56.6779L34.6243 57.4297L34.6977 57.8969L34.8152 57.8844L35.0122 57.7639L35.008 57.5563L34.8611 56.8751L34.7771 56.5221L34.7331 56.4951ZM35.0815 58.2769L34.8677 58.3268L34.7503 58.3392L34.7818 59.01L34.784 59.2405L34.8783 59.226L35.1215 59.1096L35.153 59.0203L35.1214 58.3495L35.0815 58.2769ZM14.3535 56.5989L14.2655 57.0516L14.1985 57.5293L14.1462 58.1004L14.1484 58.3309L14.314 58.2997L14.5237 58.2955L14.5927 57.5416L14.71 56.7691L14.3996 56.603L14.3535 56.5989ZM35.0944 59.66L34.782 59.7701L34.7527 59.8366L34.6417 60.794L34.7822 60.7835L34.996 60.7337L35.0547 60.6007L35.1405 59.6641L35.0944 59.66ZM14.465 58.6818L14.1589 58.7234L14.1275 58.8127L14.1738 59.5769L14.2536 60.229L14.4005 60.9101L14.5411 61.4064L14.5767 61.5248L14.7382 61.5393L14.9772 61.4687L14.9268 61.2568L14.7674 60.7128L14.6246 59.9859L14.5574 59.4502L14.5322 58.9642L14.5321 58.7109L14.465 58.6818ZM34.906 61.2092L34.5328 61.2218L34.3044 61.9383L34.2918 62.0754L34.5581 62.2145L34.6483 62.2456L34.774 61.8884L34.9521 61.2134L34.906 61.2092ZM34.0886 62.5178L33.858 63.0038L33.4954 63.6621L33.3864 63.8366L33.4976 63.8927L33.8855 63.9736L34.1076 63.579L34.487 62.7378L34.4702 62.6672L34.1787 62.5489L34.0886 62.5178ZM15.0779 61.8923L14.7446 61.9775L14.8956 62.3596L15.1872 62.9846L15.3675 63.3003L15.4074 63.3729L15.5479 63.3625L15.8351 63.2732L15.7994 63.1548L15.4806 62.5734L15.2667 62.1165L15.1702 61.9006L15.0779 61.8923ZM33.1454 64.1835L32.8792 64.5511L32.6947 64.7879L32.7996 64.9125L33.0596 65.1201L33.1288 65.1263L33.4495 64.6714L33.6109 64.4326L33.6151 64.3869L33.2125 64.2125L33.1454 64.1835ZM16.0406 63.568L15.8855 63.7383L15.7388 63.8173L15.7514 63.9336L15.894 64.1537L15.9401 64.1578L15.9779 64.2534L16.1645 64.5005L16.3092 64.6977L16.8755 65.3705L16.9698 65.3559L17.0453 65.2936L17.0495 65.2479L17.0956 65.252L17.1983 65.1461L17.2025 65.1004L17.2486 65.1046L17.2339 65.0111L16.9802 64.735L16.7684 64.5086L16.5796 64.2844L16.4349 64.0871L16.2273 63.8151L16.0637 63.5701L16.0406 63.568ZM32.3593 65.1493L32.2042 65.3196L31.9988 65.5315L31.9694 65.598L31.9233 65.5938L31.7954 65.7205L31.7913 65.7662L31.7451 65.7621L31.567 65.9303L31.3909 66.0757L31.4056 66.1692L31.6342 66.4661L31.7201 66.5429L31.8166 66.5055L32.1708 66.1919L32.4538 65.8948L32.7641 65.5542L32.7473 65.4836L32.4474 65.2033L32.3593 65.1493ZM30.9653 66.406L30.6404 66.6532L30.2211 66.915L30.1918 66.9814L30.4937 67.2389L30.6678 67.3697L31.0158 67.1246L31.2631 66.9625L31.2673 66.9168L31.3135 66.921L31.2988 66.8275L31.1352 66.5825L31.0345 66.4122L30.9653 66.406ZM17.5485 65.3849L17.32 65.5947L17.2173 65.7006L17.4941 65.9788L17.903 66.338L18.3371 66.6764L18.7733 66.992L18.9704 67.1249L19.0396 67.1311L19.071 67.0418L19.1905 67.0065L19.3687 66.8382L19.398 66.7718L19.224 66.641L18.6767 66.2693L18.1986 65.9039L17.8106 65.5696L17.6177 65.3911L17.5485 65.3849ZM29.7557 67.1726L29.3888 67.3699L28.7347 67.6567L28.4936 67.7502L28.544 67.962L28.6761 68.2963L28.8166 68.2859L29.3722 68.0594L29.8586 67.8267L30.2003 67.6501L30.1625 67.5546L29.9926 67.3781L29.8249 67.1788L29.7557 67.1726ZM19.7965 66.9918L19.6372 67.2078L19.5114 67.3117L19.4149 67.3491L19.4108 67.3948L20.0084 67.7249L20.6773 68.0383L21.3504 68.3061L21.4887 68.3185L21.5432 67.9779L21.5851 67.7744L21.0231 67.5627L20.3752 67.2741L19.8426 66.996L19.7965 66.9918ZM27.9422 67.9309L27.4411 68.0702L26.873 68.1804L26.8247 68.1991L26.8353 68.3382L26.8856 68.55L26.8878 68.7805L27.1226 68.7556L28.1688 68.5041L28.196 68.4605L28.0345 67.9392L27.9422 67.9309ZM22.059 67.9321L22.0339 68.2062L22.0297 68.5053L22.4826 68.6381L23.3507 68.8082L23.7868 68.8705L24.1789 68.9057L24.1767 68.6752L24.162 68.3284L23.1073 68.1645L22.4007 68.0089L22.1512 67.9404L22.059 67.9321ZM26.2125 68.2823L25.4871 68.3322L24.5792 68.3428L24.5961 68.6668L24.6423 68.9243L24.8729 68.945L25.6885 68.9261L26.3909 68.8741L26.4642 68.8346L26.3258 68.3155L26.2125 68.2823Z" fill="black"/>
<path d="M22.0478 54.342L22.138 54.3731L22.182 54.4001L22.1695 54.5372L21.899 54.6971L21.6537 54.8363L21.3309 55.0607L21.1569 55.1832L21.1297 55.2269L21.0835 55.2227L21.0793 55.2684L21.0332 55.2643L20.9787 55.3515L20.7754 55.5405L20.746 55.607L20.9767 55.6277L21.136 55.665L21.3645 55.4552L21.614 55.2704L21.8823 55.1333L22.2199 55.0023L22.6224 54.9234L22.8321 54.9192L22.8992 54.9482L22.9076 55.1102L22.7378 55.1871L22.3751 55.3387L22.0313 55.5382L21.7818 55.7231L21.6057 55.8685L21.373 56.124L21.132 56.4708L20.9643 56.7782L20.8155 57.1334L20.715 57.4698L20.6354 57.8312L20.5705 58.5394L20.5895 59.0938L20.6756 59.6774L20.8162 60.1737L21.007 60.6285L21.2084 60.969L21.2923 61.0687L21.2881 61.1144L21.3342 61.1185L21.437 61.2659L21.7369 61.5462L22.1521 61.8369L22.5966 62.0611L23.1145 62.2458L23.5695 62.3558L23.9134 62.4097L24.3977 62.4532L24.9093 62.4531L25.379 62.4032L26.0205 62.2535L26.4293 62.106L26.8675 61.892L27.1149 61.73L27.3643 61.5451L27.6662 61.2958L27.9513 60.976L28.1651 60.6727L28.3914 60.2324L28.5465 59.8087L28.6596 59.3352L28.7119 58.7641L28.6699 58.2075L28.5692 57.7839L28.3447 57.1879L28.072 56.6106L27.9776 56.3718L27.9902 56.2348L28.1159 56.1309L28.2564 56.1205L28.4514 56.2762L28.5982 56.4506L28.7996 56.7912L28.9171 57.0321L28.9905 57.2459L29.2253 57.221L29.0428 56.6748L28.8561 56.4277L28.8603 56.3821L28.8142 56.3779L28.6904 56.2056L28.5856 56.081L28.4199 55.8588L28.3821 55.7633L28.3968 55.6034L28.5247 55.4767L28.6442 55.4413L28.8266 55.4808L28.9545 55.6074L29.1559 55.948L29.439 56.411L29.7977 57.0651L29.9927 57.4742L30.1438 57.8563L30.2508 58.2114L30.3305 58.6101L30.3642 59.0047L30.3559 59.6028L30.291 60.0576L30.1758 60.5539L29.9893 61.0669L29.7629 61.5072L29.5449 61.8562L29.3081 62.1574L29.0775 62.39L28.849 62.5998L28.8217 62.6434L28.7756 62.6393L28.7211 62.7265L28.675 62.7223L28.6708 62.768L28.6247 62.7639L28.6205 62.8096L28.4213 62.9529L28.0985 63.1773L27.6813 63.4162L27.3165 63.5907L26.761 63.8172L26.1634 63.9938L25.7357 64.0936L25.1235 64.1768L24.4924 64.2122L24.2136 64.2102L23.4986 64.1459L22.9283 64.0256L22.4754 63.8928L22.0267 63.7143L21.494 63.4361L21.0138 63.0935L20.649 62.7613L20.3323 62.4104L20.1247 62.1384L19.8814 61.748L19.6842 61.3618L19.4555 60.8115L19.2961 60.2674L19.1828 59.7275L19.1135 59.2146L19.0861 58.4981L19.1677 57.6072L19.285 57.088L19.4463 56.5958L19.6768 56.1098L20.0017 55.6092L20.2616 55.3101L20.3392 55.2249L20.3853 55.2291L20.4398 55.1418L20.7165 54.9133L21.0373 54.7118L21.4021 54.5373L21.7627 54.4085L22.0478 54.342ZM20.463 55.904L20.2157 56.3194L19.9831 56.8282L19.9747 56.9196L20.3438 56.9528L20.4234 56.8448L20.6288 56.3795L20.765 56.1615L20.7273 56.0659L20.5952 55.985L20.5092 55.9081L20.463 55.904ZM29.4393 57.6778L29.1541 57.7443L29.1269 57.7879L29.1941 58.3237L29.2277 58.7183L29.3451 58.7058L29.5883 58.5895L29.733 58.5334L29.7245 58.3714L29.5819 57.8979L29.5064 57.7069L29.4393 57.6778ZM19.849 57.2768L19.782 57.5011L19.7296 57.8189L19.6794 58.3672L19.9352 58.3671L20.1008 58.3359L20.1783 57.744L20.2285 57.4491L20.0042 57.3599L19.849 57.2768ZM29.7981 59.092L29.4417 59.1751L29.1817 59.2209L29.0329 59.8294L28.9931 60.0101L29.7291 60.0992L29.8045 59.5302L29.8211 59.0941L29.7981 59.092ZM20.0779 58.8406L19.7277 58.8552L19.6795 58.8739L19.711 59.2913L19.7992 59.852L19.8328 59.9932L19.9502 59.9807L20.2123 59.9121L20.2038 59.7502L20.1345 59.2372L20.1009 58.8426L20.0779 58.8406ZM28.7899 60.4525L28.5719 60.8014L28.3329 61.1254L28.3476 61.2189L28.7418 61.4846L28.918 61.5926L29.027 61.6715L29.1591 61.4991L29.4106 61.038L29.5573 60.7057L29.5636 60.6371L28.9492 60.4898L28.7899 60.4525ZM20.313 60.3358L20.1662 60.4147L19.9755 60.4667L20.0468 60.7034L20.2188 61.1104L20.439 61.4987L20.6634 61.8413L21.02 62.2649L21.2779 62.4954L21.3198 62.5452L21.4121 62.5535L21.5756 62.2918L21.6783 62.1859L21.6615 62.1153L21.3784 61.9056L21.1435 61.6772L20.8499 61.3283L20.6276 60.9629L20.4514 60.6016L20.3591 60.3399L20.313 60.3358ZM27.9703 61.5304L27.4672 61.9459L27.1233 62.1453L27.1611 62.2408L27.3268 62.7164L27.3961 62.976L27.5156 62.9406L27.8342 62.762L28.1822 62.5169L28.4317 62.332L28.6854 62.1014L28.7147 62.0349L28.5365 61.9498L28.3163 61.8149L28.1024 61.6114L28.0563 61.6073L28.0604 61.5616L27.9703 61.5304ZM26.7544 62.3655L26.247 62.5733L25.6495 62.75L25.5069 62.7832L25.5573 62.995L25.7251 63.4477L25.8384 63.4809L26.5512 63.3146L27.1026 63.1339L27.1298 63.0902L26.9558 62.9594L26.874 62.8369L26.788 62.5067L26.7774 62.3676L26.7544 62.3655ZM22.0767 62.4059L21.9614 62.6489L21.8294 62.8213L21.8231 62.8899L22.2006 63.085L22.6262 63.2614L23.1923 63.4275L23.5111 63.5022L23.534 62.9975L23.5004 62.8563L23.0895 62.7733L22.5695 62.6114L22.234 62.4661L22.0767 62.4059ZM24.9639 62.8726L24.402 62.9143L23.8904 62.9144L23.9262 63.2861L23.9262 63.5395L24.3875 63.5809L24.9221 63.5829L25.18 63.56L25.1317 63.3253L25.0814 63.1135L25.0792 62.883L24.9639 62.8726Z" fill="black"/>
<path d="M22.8311 49.8519L22.9422 49.908L23.0827 50.1509L23.2296 50.5787L23.3933 51.3305L23.599 52.3854L23.9411 54.2357L24.195 55.5253L24.4238 56.5823L24.6294 57.3839L24.8413 58.1169L24.8791 58.2124L24.9923 58.2457L25.0804 58.0463L25.3067 57.606L25.5351 57.1428L25.7489 56.5862L25.818 56.339L25.5999 56.1813L25.4762 56.0089L25.4175 55.8885L25.3881 55.7016L25.409 55.4731L25.5347 55.1159L25.7527 54.767L25.9623 54.5094L26.3208 54.1501L26.6562 53.7887L26.893 53.4875L27.111 53.1385L27.1844 53.0991L27.2976 53.1323L27.4046 53.234L27.4214 53.3046L27.3585 53.4832L27.3145 53.7096L27.2915 53.9609L27.3273 54.586L27.3798 55.2817L27.3485 55.6243L27.2772 55.8943L27.1368 56.1581L26.9565 56.3492L26.8328 56.4302L26.6882 56.4863L26.4303 56.5092L26.2333 57.1364L25.8666 58.0939L25.6717 58.4449L25.5941 58.53L25.6088 58.6235L25.7766 58.8228L25.8899 59.1094L25.9172 59.3191L25.8963 59.5476L25.8041 59.7927L25.6699 59.9879L25.4917 60.1561L25.2485 60.2725L24.9886 60.3182L24.6195 60.2851L24.3491 60.1917L24.1079 60.0318L23.938 59.8553L23.7388 59.4919L23.722 59.4213L23.7513 59.1015L23.8477 58.8108L24.0112 58.549L24.2166 58.3372L24.0319 57.5605L23.7612 56.2003L23.4611 54.9066L23.2554 54.105L22.8988 52.9213L22.7477 52.2859L22.6448 51.6317L22.5943 50.9132L22.5984 50.3608L22.6508 50.043L22.7577 49.8914L22.8311 49.8519ZM24.7387 58.7296L24.5731 58.7608L24.4201 58.9082L24.3635 59.0183L24.3279 59.1533L24.3028 59.4274L24.3825 59.5728L24.5796 59.7057L24.6697 59.7368L24.9235 59.7596L25.1625 59.6889L25.3155 59.5415L25.3427 59.4978L25.3616 59.2922L25.2672 59.0534L25.0763 58.852L24.9212 58.769L24.7387 58.7296Z" fill="black"/>
<path d="M37.3546 57.6116L37.3881 59.3635L37.3599 60.3133L37.2859 61.2883L37.185 62.069L37.0383 62.875L36.8448 63.6575L36.6041 64.3922L36.3832 64.9562L36.1605 65.4228L35.8924 65.939L35.6007 66.4313L35.2858 66.924L35.0377 67.2694L34.7214 67.6891L34.4042 68.0601L34.2227 68.2583L34.2005 68.3074L34.1542 68.3082L34.1551 68.3569L34.1088 68.3578L34.1097 68.4064L34.0634 68.4073L34.0643 68.456L33.8824 68.6298L33.6328 68.9022L33.4508 69.076L33.0864 69.3992L32.7669 69.6486L32.4696 69.8489L32.126 70.0501L31.7583 70.203L31.3897 70.3073L31.2248 70.1643L31.1989 70.0188L31.3572 69.8211L31.6531 69.5478L32.2926 69.0733L32.658 68.7988L32.9543 68.5498L33.2048 68.326L33.5461 68.0032L33.8188 67.7304L34.2726 67.2351L34.431 67.0374L34.6796 66.7163L34.9727 66.297L35.2876 65.8043L35.6233 65.1895L35.8905 64.6247L36.1118 64.085L36.3085 63.4729L36.4604 62.9345L36.6094 62.2502L36.7326 61.4203L36.7909 60.8351L36.845 60.0309L36.8598 59.5925L36.8643 58.6188L36.8452 57.6212L36.9124 57.4982L37.0036 57.4235L37.1888 57.42L37.3301 57.5391L37.3546 57.6116Z" fill="black"/>
<path d="M22.5368 56.8734L22.6962 56.9108L22.8199 57.0831L22.7864 57.1953L22.5433 57.565L22.4008 57.8516L22.296 58.2337L22.2458 58.782L22.2815 59.1537L22.4053 59.5794L22.5605 59.9158L22.7451 60.1858L22.9129 60.3851L23.2379 60.6446L23.542 60.8792L23.6699 61.0059L23.7076 61.1014L23.6741 61.2136L23.5483 61.3174L23.1332 61.2801L22.8208 61.1369L22.5817 60.9542L22.3279 60.678L22.1203 60.406L21.9211 60.0426L21.77 59.6605L21.6819 59.3532L21.6378 59.0729L21.6293 58.6575L21.6901 58.2484L21.7906 57.9119L21.9625 57.5589L22.1532 57.2535L22.3607 57.0188L22.4886 56.8921L22.5368 56.8734Z" fill="black"/>
<path d="M13.3314 62.173L13.4447 62.2062L13.5034 62.3266L13.6062 62.7274L13.7573 63.1095L13.9922 63.5913L14.2544 64.0294L14.5794 64.5423L14.8039 64.8849L15.0912 65.3023L15.3596 65.6719L15.6071 66.0166L15.8777 66.3633L16.0224 66.5606L16.251 66.8575L16.3307 67.0029L16.2971 67.115L16.1986 67.1753L15.9973 67.0881L15.7142 66.8784L15.4563 66.6479L15.2445 66.4216L14.888 65.998L14.7034 65.7281L14.437 65.3356L14.1539 64.8726L13.9525 64.532L13.7931 64.2413L13.6148 63.9029L13.3862 63.3526L13.2645 62.904L13.1931 62.4139L13.2098 62.2312L13.3314 62.173Z" fill="black"/>
<path d="M27.388 64.3341L27.5264 64.3466L27.7382 64.5729L27.9227 64.8428L28.0905 65.0422L28.2352 65.2394L28.5498 65.6132L28.7197 65.7897L28.9336 65.9931L29.2271 66.0886L29.332 66.2132L29.246 66.3897L29.1161 66.5393L28.8959 66.6577L28.7764 66.693L28.5458 66.6723L28.464 66.5498L28.3717 66.2882L28.2773 66.0494L28.0697 65.7773L28.0256 65.7504L28.0298 65.7047L27.9418 65.6507L27.753 65.4264L27.8705 65.9207L27.9104 66.2467L27.8958 66.4066L28.0761 66.4689L28.1579 66.5914L28.1726 66.6849L28.0888 66.8385L27.9148 66.9611L27.6087 67.0027L27.378 66.982L27.2732 66.8574L27.3088 66.7224L27.3801 66.7058L27.4346 66.6185L27.5394 66.4898L27.554 66.3299L27.3 64.7869L27.2727 64.5771L27.2894 64.3944L27.388 64.3341Z" fill="black"/>
<path d="M18.4735 57.0611L18.6329 57.0985L18.6455 57.2148L18.5197 57.3186L18.2723 57.4807L17.9075 57.6552L17.8614 57.6511L17.9243 57.7258L18.5492 58.0123L18.7253 58.1202L18.7442 58.168L18.7296 58.3279L18.6269 58.4338L18.5807 58.4297L18.5765 58.4754L18.4403 58.4401L17.8385 58.1557L17.3457 57.9502L17.2283 57.9627L16.7482 58.1268L16.1045 58.2993L15.7271 58.3576L15.6433 58.2579L15.6579 58.098L15.8529 58.0003L16.2386 57.8507L16.6747 57.6596L16.6999 57.6388L16.3476 57.4229L15.9303 57.1551L15.8883 57.1053L15.926 56.9474L15.9784 56.883L16.1609 56.9225L16.9661 57.2712L17.2575 57.3895L17.7166 57.2004L18.0982 57.0965L18.4735 57.0611Z" fill="black"/>
<path d="M25.4372 49.8327L25.5756 49.8452L25.6616 49.922L25.6218 50.1027L25.2383 50.9895L25.2026 51.1245L25.3201 51.3654L25.4711 51.7475L25.576 52.1254L25.6013 52.358L25.5866 52.5179L25.5111 52.5802L25.4 52.5242L25.2134 52.2771L24.9722 51.8639L24.9155 51.7206L24.8715 51.6936L24.8359 51.8286L24.5781 52.3582L24.4628 52.6012L24.3622 52.6843L24.2238 52.6719L24.0938 52.568L24.0749 52.5203L24.0875 52.3832L24.3452 51.8536L24.6386 51.189L24.6302 51.027L24.4519 50.4352L24.3847 50.1527L24.4183 50.0406L24.5419 49.9596L24.6782 49.9949L24.9069 50.5451L24.9509 50.5721L25.28 50.0259L25.412 49.8535L25.4372 49.8327Z" fill="black"/>
<path d="M20.5375 50.7745L20.6759 50.7869L20.7346 50.9073L20.9193 51.9374L20.9571 52.0329L21.3093 52.2488L21.5715 52.4336L21.8294 52.664L21.9972 52.8634L22.0538 53.0066L22.0455 53.098L21.905 53.1084L21.3682 52.8759L21.0578 52.7099L21.0348 52.7078L21.1817 53.6423L21.144 53.8001L20.9742 53.877L20.8149 53.8397L20.754 53.7421L20.6071 52.8076L20.5105 52.3382L20.1645 52.0538L19.8646 51.7735L19.6948 51.597L19.7262 51.5077L19.8059 51.3997L19.9652 51.437L20.3594 51.7028L20.4265 51.7319L20.4286 51.4556L20.4222 51.0175L20.4389 50.8347L20.5375 50.7745Z" fill="black"/>
<path d="M17.4453 53.0532L17.5355 53.0844L17.6802 53.2816L17.9634 53.7447L18.1857 54.1102L18.2528 54.1392L18.7329 54.2284L19.1397 54.3571L19.4291 54.4983L19.5822 54.6041L19.5927 54.7433L19.5424 54.7848L19.3096 54.7869L18.5255 54.7165L18.8254 55.2502L19.0267 55.5907L19.0414 55.6841L18.9366 55.8129L18.8381 55.8732L18.6787 55.8358L18.5382 55.5929L18.318 55.2046L18.0348 54.7415L17.9111 54.5692L17.1898 54.3201L16.9445 54.2059L16.8606 54.1063L16.9465 53.9297L17.0409 53.9152L17.6112 54.0355L17.5755 53.9171L17.3091 53.2713L17.3196 53.1571L17.4453 53.0532Z" fill="black"/>
<path d="M24.4296 64.6442L24.6602 64.6649L24.7232 64.7396L24.8344 65.3024L24.9582 65.9815L25.1135 66.5712L25.2624 66.7228L25.2729 66.862L25.0926 67.053L24.9228 67.1299L24.7132 67.1341L24.5349 67.049L24.407 66.9223L24.4405 66.8102L24.5642 66.7292L24.5977 66.617L24.4571 65.8674L24.4613 65.8217L24.4152 65.8175L24.3691 66.0667L24.147 66.7147L24.2833 66.75L24.3672 66.8497L24.4049 66.9452L24.3714 67.0573L24.2959 67.1197L24.1764 67.155L23.9479 67.1114L23.7717 67.0035L23.6878 66.9038L23.6983 66.7896L23.8241 66.6857L23.8995 66.37L24.1195 65.4915L24.3269 64.7501L24.4296 64.6442Z" fill="black"/>
<path d="M19.4453 61.9392L19.5564 61.9952L19.6571 62.1655L19.6236 62.2777L19.3657 62.5539L19.0052 62.9361L18.6677 63.3204L18.4308 63.6215L18.412 63.8271L18.3093 63.9331L18.2128 63.9705L17.913 63.9435L17.7599 63.8377L17.697 63.7629L17.6446 63.5739L17.6592 63.414L17.764 63.2852L18.1183 63.2249L18.3238 63.0131L18.5313 62.7784L18.6089 62.6932L18.4663 62.7265L17.961 62.9114L17.4579 63.0735L17.3887 63.0673L17.3299 62.9468L17.3635 62.8347L17.6087 62.6955L18.2398 62.4067L19.0365 62.0867L19.4453 61.9392Z" fill="black"/>
<path d="M22.0687 64.2708L22.1819 64.304L22.3119 64.4079L22.2889 64.6591L22.0291 65.7183L21.9789 66.0132L21.9517 66.3102L22.0314 66.4556L21.9979 66.5677L21.8448 66.7152L21.6771 66.7692L21.4905 66.7755L21.3374 66.6696L21.2787 66.5492L21.2556 66.2937L21.3311 66.2314L21.4275 66.194L21.616 65.4048L21.6223 65.3363L21.3624 65.6354L21.1549 65.8701L20.7943 66.2523L20.6811 66.2191L20.6182 66.1443L20.6538 66.0093L20.9221 65.6189L21.2386 65.2097L21.815 64.5014L21.9953 64.3103L22.0687 64.2708Z" fill="black"/>
<path d="M21.7129 46.8264L21.9205 46.845L21.9834 46.9198L21.9981 47.0132L21.9184 47.1212L21.7214 47.2417L21.3356 47.3913L20.9792 47.4744L19.7988 47.6678L19.2998 47.7842L19.1803 47.8195L19.0671 47.7863L18.9853 47.6638L18.9727 47.5475L19.0524 47.4395L19.0985 47.4437L19.1027 47.398L19.5639 47.1861L19.9958 47.0406L20.564 46.9304L21.4089 46.8451L21.7129 46.8264Z" fill="black"/>
<path d="M30.4927 51.761L30.6059 51.7942L30.7149 51.8731L30.7946 52.0184L30.7821 52.1555L30.5976 52.3923L30.3691 52.6021L30.0861 52.8991L29.8011 53.219L29.4845 53.6282L29.2791 53.84L29.0779 54.0062L28.9605 54.0187L28.8283 53.9377L28.7445 53.8381L28.7822 53.6802L28.9771 53.3292L29.1867 53.0717L29.6038 52.5794L29.9141 52.2388L30.1447 52.0061L30.3711 51.8192L30.4927 51.761Z" fill="black"/>
<path d="M31.9158 59.5817L33.6686 59.7392L33.7924 59.9115L33.7777 60.0714L33.6478 60.221L33.5765 60.2376L32.4464 60.1361L31.2051 59.9785L30.6788 59.8851L30.5698 59.8062L30.5488 59.7813L30.5635 59.6214L30.6389 59.5591L30.7102 59.5425L31.4294 59.561L31.9158 59.5817Z" fill="black"/>
<path d="M32.1086 59.0002L33.4232 59.1183L33.744 59.1701L33.8489 59.2947L33.8594 59.4338L33.7797 59.5419L33.6581 59.6L31.8361 59.4363L31.1253 59.3264L30.8066 59.2517L30.7667 59.179L30.8045 59.0212L30.8548 58.9796L31.553 58.9733L32.1086 59.0002Z" fill="black"/>
<path d="M32.3656 54.9235L32.6424 54.9483L32.7452 55.0958L32.7075 55.2536L32.4622 55.3928L31.764 55.6525L31.3783 55.8021L30.6969 56.1325L30.4537 56.2488L30.2902 56.2572L30.1853 56.1326L30.1665 56.0848L30.1811 55.9249L30.2838 55.819L30.6758 55.6008L31.1874 55.3474L31.7681 55.1001L32.1287 54.9713L32.3656 54.9235Z" fill="black"/>
<path d="M15.7628 58.4759L16.5428 58.5921L17.2808 58.6584L18.3921 58.7122L18.5494 58.7723L18.627 58.9405L18.5683 59.0735L18.4425 59.1773L18.0714 59.167L16.9161 59.0863L16.3185 59.0095L16.0019 58.912L15.7377 58.7501L15.6538 58.6504L15.6643 58.5362L15.7628 58.4759Z" fill="black"/>
<path d="M29.9267 62.5123L30.086 62.5497L30.5704 62.8466L30.9185 63.1082L31.4386 63.5234L31.7615 63.8058L31.9544 63.9843L32.0383 64.084L32.0509 64.2003L31.9943 64.3104L31.8686 64.4142L31.6862 64.3748L31.445 64.215L31.078 63.9056L30.7781 63.6253L30.4153 63.2703L30.0735 62.9401L29.8156 62.7097L29.8491 62.5975L29.9267 62.5123Z" fill="black"/>
<path d="M32.7018 58.3625L33.3476 58.4205L33.7355 58.5014L33.8403 58.626L33.8026 58.7838L33.7272 58.8462L33.4693 58.8691L33.0751 58.8567L31.9911 58.7593L31.1398 58.6598L30.8652 58.6121L30.8274 58.5165L30.8379 58.4023L30.8903 58.3379L31.3557 58.3337L32.2846 58.348L32.7018 58.3625Z" fill="black"/>
<path d="M26.9384 49.9446L27.0978 49.9819L27.1397 50.0318L27.1461 50.2166L26.9536 52.3183L26.8908 52.7502L26.8111 52.8582L26.7629 52.8769L26.6015 52.8624L26.4945 52.7607L26.4819 52.6444L26.553 51.8677L26.7834 50.3683L26.8336 50.0733L26.8902 49.9633L26.9384 49.9446Z" fill="black"/>
<path d="M16.9933 67.3849L17.1317 67.3973L17.5678 67.7129L17.9998 68.0741L18.2766 68.3524L18.4444 68.5517L18.522 68.7199L18.4885 68.832L18.39 68.8923L18.0692 68.8404L17.7148 68.6474L17.4757 68.4647L17.1758 68.1844L16.964 67.958L16.7942 67.7816L16.7354 67.6611L16.8193 67.5074L16.9451 67.4036L16.9933 67.3849Z" fill="black"/>
<path d="M30.4778 61.3181L30.6833 61.3596L31.0356 61.5755L31.3648 61.7894L31.6039 61.9721L31.9059 62.2295L32.1407 62.4579L32.3525 62.6842L32.4805 62.8109L32.4763 62.8566L32.5224 62.8607L32.6 63.0289L32.5686 63.1182L32.4407 63.2449L32.3023 63.2325L32.1073 63.0768L31.9605 62.9024L31.5956 62.5702L31.3167 62.3148L30.8197 61.9016L30.3856 61.5632L30.3709 61.4697L30.4778 61.3181Z" fill="black"/>
<path d="M26.062 49.8658L26.2004 49.8783L26.2654 49.9302L26.2864 50.2084L26.3202 51.1097L26.3517 51.7805L26.3434 52.1253L26.3079 52.5136L26.245 52.6922L26.1213 52.7732L25.9829 52.7608L25.8949 52.7068L25.876 52.6591L25.9429 51.6747L25.9426 50.4079L25.9886 49.9053L26.062 49.8658Z" fill="black"/>
<path d="M32.7767 55.5132L32.892 55.5236L33.0158 55.6959L33.0242 55.8579L32.8502 55.9804L32.1751 56.2423L31.6216 56.4459L31.3784 56.5622L31.1122 56.6765L30.6237 56.932L30.5335 56.9009L30.4538 56.7555L30.5104 56.6455L30.8081 56.4419L31.3217 56.1656L31.8563 55.9142L32.4622 55.6462L32.7767 55.5132Z" fill="black"/>
<path d="M29.4865 63.0025L29.671 63.0191L29.9352 63.1811L30.233 63.4842L30.6944 64.0324L30.7803 64.1092L30.7762 64.1549L30.8642 64.2089L31.1578 64.5577L31.1956 64.6532L31.1579 64.811L31.1076 64.8526L30.9692 64.8402L30.705 64.6782L30.4261 64.4228L30.2981 64.2962L30.3023 64.2505L30.2352 64.2214L30.0507 63.9515L29.9248 63.802L29.929 63.7563L29.8829 63.7522L29.7592 63.5798L29.5012 63.3494L29.2391 63.1646L29.2705 63.0753L29.4865 63.0025Z" fill="black"/>
<path d="M30.2809 61.9453L30.4151 62.0035L30.7171 62.2609L31.084 62.5703L31.4091 62.8298L31.7362 63.0665L32.1304 63.3322L32.2625 63.4132L32.3255 63.4879L32.3129 63.625L32.1829 63.7746L31.9984 63.758L31.6461 63.5421L31.254 63.2535L30.9101 62.9462L30.6333 62.668L30.1635 62.2112L30.2012 62.0533L30.2809 61.9453Z" fill="black"/>
<path d="M23.4609 64.5571L23.6454 64.5737L23.7104 64.6256L23.7231 64.7419L23.6352 65.7014L23.4761 66.9308L23.3755 67.0139L23.235 67.0243L23.1239 66.9683L23.0609 66.8935L23.0525 66.7316L23.2829 65.2321L23.3792 64.688L23.4609 64.5571Z" fill="black"/>
<path d="M18.9377 61.1335L19.051 61.1667L19.1307 61.3121L19.0992 61.4014L18.898 61.5676L18.6024 61.7483L18.1852 61.9872L17.8665 62.1659L17.6213 62.3051L17.2271 62.546L17.0825 62.6021L16.9944 62.5482L16.8916 62.4007L16.879 62.2844L17.0321 62.137L18.5729 61.308L18.8895 61.1522L18.9377 61.1335Z" fill="black"/>
<path d="M18.6315 60.415L18.7594 60.5417L18.7678 60.7037L18.5687 60.847L18.2479 61.0485L17.8559 61.2666L17.6106 61.4058L17.2668 61.6053L16.946 61.8068L16.7762 61.8836L16.6399 61.8484L16.5581 61.7259L16.5393 61.6781L16.5518 61.541L16.751 61.3977L18.2918 60.5688L18.6315 60.415Z" fill="black"/>
<path d="M18.342 59.7671L18.4741 59.8481L18.5139 59.9208L18.5035 60.035L18.2289 60.2407L17.8347 60.4816L17.3693 60.7392L16.9521 60.9782L16.6314 61.1797L16.5098 61.2378L16.3966 61.2046L16.2728 61.0323L16.2581 60.9388L16.3378 60.8308L17.2434 60.3364L17.9038 59.9811L18.342 59.7671Z" fill="black"/>
<path d="M21.2048 63.8017L21.341 63.8369L21.448 63.9387L21.3579 64.1609L21.1609 64.5348L20.8318 65.081L20.6117 65.4528L20.4734 65.6937L20.3099 65.9554L20.2114 66.0157L20.0751 65.9804L19.9661 65.9015L19.9325 65.7603L20.0457 65.5401L20.316 65.1268L20.6703 64.5598L20.9406 64.1465L21.1544 63.8432L21.2048 63.8017Z" fill="black"/>
<path d="M21.3677 50.5957L21.481 50.6289L21.6005 50.8469L21.7746 51.2311L21.9257 51.6132L22.1354 52.1157L22.3137 52.4542L22.4752 52.722L22.5759 52.8923L22.5382 53.0502L22.3893 53.1519L22.2719 53.1644L22.165 53.0627L21.9342 52.5352L21.2923 50.9114L21.242 50.6996L21.3677 50.5957Z" fill="black"/>
<path d="M20.5233 63.6253L20.7057 63.6647L20.8148 63.7436L20.8001 63.9035L20.5738 64.3438L20.3034 64.7571L20.0938 65.0147L19.8653 65.2245L19.6221 65.3408L19.5089 65.3076L19.4732 65.1893L19.6346 64.9504L19.9742 64.5433L20.1922 64.1944L20.3368 63.8849L20.4479 63.6876L20.5233 63.6253Z" fill="black"/>
<rect width="1.53115" height="0.566231" transform="matrix(0.851932 0.522345 -0.530341 0.8486 29.3078 49.3829)" fill="white"/>
<ellipse cx="40.8413" cy="27.7298" rx="14.4921" ry="14.028" fill="white"/>
</svg>
